<?xml version="1.0" standalone="no"?>
<!DOCTYPE svg PUBLIC "-//W3C//DTD SVG 1.1//EN" "http://www.w3.org/Graphics/SVG/1.1/DTD/svg11.dtd" >
<svg>
<metadata>
Created by FontForge 20090914 at Tue Jul  9 14:04:51 2019
 By www-data
</metadata>
<defs>
<font id="simple-line-icons" horiz-adv-x="1024" >
  <font-face 
    font-family="simple-line-icons"
    font-weight="400"
    font-stretch="normal"
    units-per-em="1024"
    panose-1="2 0 5 3 0 0 0 0 0 0"
    ascent="960"
    descent="-64"
    bbox="-3.99902 -66.002 1030.5 962.004"
    underline-thickness="0"
    underline-position="0"
    unicode-range="U+0020-U+E620"
  />
<missing-glyph 
 />
    <glyph glyph-name=".notdef" 
 />
    <glyph glyph-name=".notdef" 
 />
    <glyph glyph-name="space" unicode=" " horiz-adv-x="512" 
 />
    <glyph glyph-name="user-female" unicode="&#xe000;" 
d="M960 157l-277.999 132.003c7.33301 4 21.833 8.16699 43.5 12.5s42.667 8.16602 63 11.499s39.333 7.83301 57 13.5s27.834 12.5 30.501 20.5c-2 2 -4.16699 5.16699 -6.5 9.5l-14.5 28c-7.33301 14.333 -13.833 29 -19.5 44s-11.667 33.5 -18 55.5
s-10.833 43.667 -13.5 65c-0.666992 7.33301 -3.83398 32 -9.50098 74l-14.5 111c-7.33301 66 -36.166 120.167 -86.499 162.5s-110.833 63.5 -181.5 63.5v0c-46.667 0 -89.5 -9.5 -128.5 -28.5s-70.833 -45.833 -95.5 -80.5s-39.334 -73.667 -44.001 -117
c-2.66699 -24 -5.66699 -48 -9 -72l-9 -66.5l-6 -46.5c-4.66699 -34 -12.834 -67.833 -24.501 -101.5s-22.5 -58.834 -32.5 -75.501l-15 -25c2.66699 -8 12.834 -14.833 30.501 -20.5s36.667 -10.167 57 -13.5s41.333 -7.16602 63 -11.499s36.167 -8.5 43.5 -12.5l-278 -132
c-2 -0.666992 -4.33301 -1.5 -7 -2.5s-7.66699 -3.83301 -15 -8.5s-13.833 -9.66699 -19.5 -15s-10.834 -12.333 -15.501 -21s-7 -18 -7 -28v-85c0 -8.66699 1.66699 -16.834 5 -24.501s7.83301 -14.167 13.5 -19.5s12.5 -9.5 20.5 -12.5s16.333 -4.5 25 -4.5h896
c18 0 33.167 5.83301 45.5 17.5s18.5 26.167 18.5 43.5v85c0 31.333 -19 55.666 -57 72.999c-4 1.33301 -6.33301 2 -7 2zM64.001 0.00292969l-0.00585938 81.998c0 1.33301 2.33301 3.66602 7 6.99902s9.66699 6 15 8l5 3l279 132
c10.667 4.66699 19.334 12.167 26.001 22.5s10 21.833 10 34.5c0.666992 2.66699 0.833984 5.33398 0.500977 8.00098s-0.833008 5.16699 -1.5 7.5s-1.5 4.83301 -2.5 7.5s-2.16699 5.16699 -3.5 7.5s-2.66602 4.5 -3.99902 6.5s-3 4 -5 6s-4 3.83301 -6 5.5l-6 5
c-2 1.66699 -4.33301 3.16699 -7 4.5c-15.333 7.33301 -47 15.333 -95 24l-39 7c24 54.667 39.333 109.334 46 164.001c1.33301 11.333 3.66602 29.333 6.99902 54c3.33301 22 6.33301 43.333 9 64s5.33398 42.667 8.00098 66c6 50 28 90.833 66 122.5s84.333 47.5 139 47.5
v0c54.667 0 101 -15.833 139 -47.5s60 -72.5 66 -122.5c4 -38 9.66699 -81.333 17 -130c0.666992 -6 1.33398 -11 2.00098 -15s1.33398 -8.5 2.00098 -13.5s1.16699 -9.66699 1.5 -14s0.833008 -8.16602 1.5 -11.499c6.66699 -54.667 22 -109.334 46 -164.001l-39 -7
c-48 -8.66699 -79.667 -16.667 -95 -24c-7.33301 -4 -13.666 -9 -18.999 -15s-9.5 -12.667 -12.5 -20s-4.16699 -15 -3.5 -23c0 -4 0.333008 -8 1 -12s1.66699 -7.83301 3 -11.5s3.16602 -7.16699 5.49902 -10.5s4.83301 -6.5 7.5 -9.5s5.66699 -5.66699 9 -8
s6.66602 -4.16602 9.99902 -5.49902l279 -133l5 -2c4.66699 -2 9.33398 -4.5 14.001 -7.5s7.33398 -5.5 8.00098 -7.5v-82h-896z" />
    <glyph glyph-name="people" unicode="&#xe001;" 
d="M746 125l-201.002 111.002c33.333 26.667 57.5 63 72.5 109s22.5 89.667 22.5 131v135c0 29.333 -11.5 58.666 -34.5 87.999s-53.167 53.5 -90.5 72.5s-75.333 28.5 -114 28.5c-22.667 0 -46 -3.66699 -70 -11s-46 -17.333 -66 -30s-38 -26.834 -54 -42.501
s-28.5 -32.834 -37.5 -51.501s-13.5 -36.667 -13.5 -54v-135c0 -37.333 8.33301 -79.666 25 -126.999s42 -84.666 76 -111.999l-207 -112c-4 -2 -9 -4.66699 -15 -8s-14 -9.66602 -24 -18.999s-15 -18.333 -15 -27v-81c0 -15.333 5.33301 -28.166 16 -38.499
s23.334 -15.5 38.001 -15.5h692c14.667 0 27.334 5.16699 38.001 15.5s16 23.166 16 38.499v81c0 4 -1 8.16699 -3 12.5s-4.5 8.16602 -7.5 11.499s-6.5 6.66602 -10.5 9.99902s-8 6.16602 -12 8.49902l-10.5 6c-3 1.66699 -5.5 2.83398 -7.5 3.50098zM735.998 0.00195312
l-672 0.00390625v57c5.33301 4 10.666 7 15.999 9l4 2l207 113c3.33301 1.33301 6.33301 3.16602 9 5.49902s5.16699 4.66602 7.5 6.99902s4.5 5 6.5 8s3.66699 6.16699 5 9.5s2.5 6.66602 3.5 9.99902s1.5 6.66602 1.5 9.99902c2 22.667 -5.66699 41.334 -23 56.001
c-12.667 10 -24.167 23.333 -34.5 40s-18.5 34 -24.5 52s-10.5 35.333 -13.5 52s-4.5 31.667 -4.5 45v135c0 25.333 18.833 52.5 56.5 81.5s77.834 43.5 120.501 43.5c44 0 84.167 -14.333 120.5 -43s54.5 -56 54.5 -82v-135c0 -32.667 -5.66699 -67.5 -17 -104.5
s-29.333 -65.167 -54 -84.5c-18 -14.667 -26 -33.334 -24 -56.001s13 -39.667 33 -51l201 -111l6 -3c4.66699 -2 9.66699 -5 15 -9v-57zM969.998 284.006l-203.994 112.004c17.333 14 32.666 31.5 45.999 52.5s23.666 42.833 30.999 65.5s12.666 44.167 15.999 64.5
s5 39.166 5 56.499v135c0 22 -7.16699 44.5 -21.5 67.5s-32.5 43.5 -54.5 61.5s-47.833 32.833 -77.5 44.5s-59.167 17.5 -88.5 17.5c-37.333 0 -74.5 -9.16699 -111.5 -27.5s-67.5 -41.5 -91.5 -69.5c3.33301 0 8.66602 -0.166992 15.999 -0.5s13 -0.666016 17 -0.999023
s9.16699 -0.833008 15.5 -1.5s12.166 -1.5 17.499 -2.5s10.333 -2.16699 15 -3.5c36 27.333 76.667 41 122 41c44 0 84.667 -14.5 122 -43.5s56 -56.5 56 -82.5v-135c0 -31.333 -6.16699 -65.833 -18.5 -103.5s-30.833 -66.167 -55.5 -85.5c-18 -14 -26 -32.667 -24 -56
c0 -4 0.666992 -8 2 -12s3 -7.83301 5 -11.5s4.16699 -7.16699 6.5 -10.5s5.16602 -6.33301 8.49902 -9s7 -5.33398 11 -8.00098l204 -111c1.33301 -0.666992 2.5 -1.16699 3.5 -1.5s2 -0.833008 3 -1.5s2.16699 -1.33398 3.5 -2.00098l4 -2
c1.33301 -0.666992 2.5 -1.33398 3.5 -2.00098s2.16699 -1.33398 3.5 -2.00098v-57h-129c6 -4.66699 11.167 -10.667 15.5 -18s7.5 -14 9.5 -20s4.66699 -14.667 8 -26h106c10 0 19.167 2.33301 27.5 7s14.833 11.167 19.5 19.5s7 17.5 7 27.5v80
c0 9.33301 -4.5 18.5 -13.5 27.5s-18.167 15.833 -27.5 20.5z" />
    <glyph glyph-name="user-follow" unicode="&#xe002;" 
d="M64 65c0 16.667 9.00293 28.9961 27.0029 36.9961l281 133c10 4.66699 18.333 11.5 25 20.5s10.667 18.833 12 29.5c2.66699 24 -5.33301 43.333 -24 58c-30 24.667 -53.667 60.5 -71 107.5s-26 88.833 -26 125.5v160c0 10.667 3 22.334 9 35.001
s14.167 24.834 24.5 36.501s22.833 22.834 37.5 33.501s30.167 20 46.5 28s33.833 14.5 52.5 19.5s36.667 7.5 54 7.5s35.333 -2.33301 54 -7s36.167 -11 52.5 -19s31.666 -17.5 45.999 -28.5s26.666 -22.333 36.999 -34s18.666 -23.667 24.999 -36s9.5 -24.166 9.5 -35.499
v-160c0 -38 -8 -80.333 -24 -127s-39.667 -82 -71 -106c-5.33301 -4.66699 -10 -10.167 -14 -16.5s-6.83301 -13 -8.5 -20s-2.16699 -14.167 -1.5 -21.5c1.33301 -11.333 5.33301 -21.5 12 -30.5s15 -15.833 25 -20.5l96 -45l16 64l-85 39c40 32 69.833 75.5 89.5 130.5
s29.5 106.167 29.5 153.5v160c0 20.667 -5.5 42 -16.5 64s-26 42.333 -45 61s-40.5 35.5 -64.5 50.5s-50.167 26.833 -78.5 35.5s-56.166 13 -83.499 13c-46 0 -91.5 -11.167 -136.5 -33.5s-81.5 -51 -109.5 -86s-42 -69.833 -42 -104.5v-160
c0 -44 10.167 -94.167 30.5 -150.5s50.5 -100.5 90.5 -132.5l-281 -133l-32 -18c-20.667 -16 -31.334 -31.333 -32.001 -46v-96c-0 -17.333 6.33301 -32.333 19 -45s27.667 -19 45 -19h704v64h-704v65zM992.003 127.996h-96v96c0 8.66699 -3.16699 16.167 -9.5 22.5
s-13.833 9.5 -22.5 9.5c-6 0 -11.333 -1.33301 -16 -4s-8.5 -6.5 -11.5 -11.5s-4.5 -10.5 -4.5 -16.5v-96h-96c-6 0 -11.333 -1.33301 -16 -4s-8.5 -6.5 -11.5 -11.5s-4.5 -10.5 -4.5 -16.5c0 -8.66699 3.16699 -16.167 9.5 -22.5s13.833 -9.5 22.5 -9.5h96v-96
c0 -8.66699 3.16699 -16.167 9.5 -22.5s13.833 -9.5 22.5 -9.5s16.167 3.16699 22.5 9.5s9.5 13.833 9.5 22.5v96h96c8.66699 0 16.167 3.16699 22.5 9.5s9.5 13.833 9.5 22.5s-3.16699 16.167 -9.5 22.5s-13.833 9.5 -22.5 9.5z" />
    <glyph glyph-name="user-following" unicode="&#xe003;" 
d="M64 0l0.00195312 64.999c0 16.667 8.66699 29 26 37l281 133c22 10 34.333 26.667 37 50s-5 42.666 -23 57.999c-30.667 24 -54.667 59.667 -72 107s-26 89.333 -26 126v160c0 10.667 3.16699 22.334 9.5 35.001s14.666 24.834 24.999 36.501s22.833 22.834 37.5 33.501
s30.167 20 46.5 28s33.666 14.5 51.999 19.5s36.166 7.5 53.499 7.5c34.667 0 69.834 -8.66699 105.501 -26s64.334 -38.333 86.001 -63s32.5 -48.334 32.5 -71.001v-160c0 -38 -8 -80.333 -24 -127s-39.333 -82 -70 -106c-6 -4.66699 -10.833 -10.167 -14.5 -16.5
s-6.33398 -13 -8.00098 -20s-2.16699 -14.167 -1.5 -21.5c1.33301 -11.333 5.33301 -21.5 12 -30.5s15 -15.833 25 -20.5l162 -77l38 54l-173 81c40 32 69.667 75.5 89 130.5s29 106.167 29 153.5v160c0 34.667 -14 69.334 -42 104.001s-64.5 63.334 -109.5 86.001
s-90.333 34 -136 34s-91.167 -11.333 -136.5 -34s-82 -51.334 -110 -86.001s-42 -69.334 -42 -104.001v-160c0 -44 10.167 -94.167 30.5 -150.5s50.5 -100.5 90.5 -132.5l-281 -133c-0.666992 0 -1.66699 -0.5 -3 -1.5s-4.33301 -2.66699 -9 -5s-9 -4.83301 -13 -7.5
s-8.5 -6 -13.5 -10s-9.16699 -8 -12.5 -12s-6.16602 -8.33301 -8.49902 -13s-3.5 -9.66699 -3.5 -15v-96c0 -17.333 6.16699 -32.333 18.5 -45s27.166 -19 44.499 -19h640l-52 64h-587zM1012 235.999c-2.66699 2.66699 -5.66699 4.49805 -9 5.49805s-6.5 1.5 -9.5 1.5
s-6.16699 -0.333008 -9.5 -1s-6.33301 -2 -9 -4s-5.33398 -4.33301 -8.00098 -7l-137 -209l-85 85c-6 6.66699 -13.333 10 -22 10s-16.334 -3.33301 -23.001 -10c-2.66699 -2 -4.66699 -4.5 -6 -7.5s-2.33301 -6.16699 -3 -9.5s-0.666992 -6.66602 0 -9.99902
s1.66699 -6.5 3 -9.5s3.33301 -5.83301 6 -8.5l113 -113c6.66699 -6 14.334 -9 23.001 -9s16.334 3 23.001 9c2.66699 2.66699 4.66699 6 6 10l153 233c5.33301 6.66699 7.5 14.334 6.5 23.001s-5.16699 15.667 -12.5 21z" />
    <glyph glyph-name="user-unfollow" unicode="&#xe004;" 
d="M799 576l-0.000976562 160.002c0 34.667 -14 69.5 -42 104.5s-64.5 63.667 -109.5 86s-90.333 33.5 -136 33.5s-91.167 -11.167 -136.5 -33.5s-82 -51 -110 -86s-42 -69.833 -42 -104.5v-160c0 -44 10.167 -94 30.5 -150s50.5 -100.333 90.5 -133l-281 -133
c-1.33301 -0.666992 -3.5 -1.66699 -6.5 -3s-8.16699 -4.33301 -15.5 -9s-13.833 -9.33398 -19.5 -14.001s-10.834 -10.5 -15.501 -17.5s-7 -13.833 -7 -20.5v-96c0 -17.333 6.33301 -32.333 19 -45s27.667 -19 45 -19h608v64h-608v65c0 16.667 9 29 27 37l281 133
c10 4.66699 18.333 11.5 25 20.5s10.667 18.833 12 29.5c0.666992 5.33301 0.666992 10.833 0 16.5s-2 11 -4 16s-4.66699 9.66699 -8 14s-7 8.16602 -11 11.499c-30.667 24.667 -54.667 60.5 -72 107.5s-26 88.833 -26 125.5v160c0 22 11 45.5 33 70.5
s50.833 46.167 86.5 63.5s70.5 26 104.5 26c34.667 0 69.834 -8.5 105.501 -25.5s64.334 -38 86.001 -63s32.5 -48.833 32.5 -71.5v-160c0 -38 -8 -80.333 -24 -127s-39.333 -82 -70 -106c-18.667 -14.667 -26.667 -34 -24 -58c1.33301 -11.333 5.33301 -21.5 12 -30.5
s15 -15.833 25 -20.5l18 -8l28 52l-20 15c40.667 31.333 70.667 74.5 90 129.5s29 106.167 29 153.5zM924.999 81.002l90 91c6 6 9 13.5 9 22.5s-3 16.5 -9 22.5s-13.5 9 -22.5 9s-16.5 -3 -22.5 -9l-91 -91l-90 91c-6 6 -13.5 9 -22.5 9s-16.667 -3 -23 -9
s-9.5 -13.5 -9.5 -22.5s3.33301 -16.5 10 -22.5l90 -91l-90 -90c-6.66699 -6.66699 -10 -14.334 -10 -23.001s3.16699 -16.167 9.5 -22.5s14 -9.5 23 -9.5s16.5 3 22.5 9l90 91l91 -91c6 -6 13.5 -9 22.5 -9s16.5 3.16699 22.5 9.5s9 13.833 9 22.5s-3 16.334 -9 23.001z
" />
    <glyph glyph-name="user" unicode="&#xe005;" 
d="M512 896c26 0 52.832 -5.16699 80.499 -15.5s51.834 -23.333 72.501 -39s37.667 -33 51 -52s20 -36.833 20 -53.5v-160c0 -38 -8 -80.333 -24 -127s-39.667 -82 -71 -106c-5.33301 -4.66699 -10 -10.167 -14 -16.5s-6.83301 -13 -8.5 -20s-2.16699 -14.167 -1.5 -21.5
c3.33301 -24 15.666 -41 36.999 -51l279 -132l2 -0.5c1.33301 -0.333008 2.66602 -0.833008 3.99902 -1.5s3 -1.66699 5 -3s3.83301 -2.83301 5.5 -4.5s3.33398 -3.83398 5.00098 -6.50098s2.83398 -6 3.50098 -10s1 -8.33301 1 -13v-62l-895 -1v65c0 16.667 9 29 27 37
l281 133c21.333 10 33.5 26.833 36.5 50.5s-4.83301 42.834 -23.5 57.501c-30.667 24.667 -54.5 60.5 -71.5 107.5s-25.5 88.833 -25.5 125.5v160c0 22 11 45.5 33 70.5s50.667 46.167 86 63.5s70.333 26 105 26zM511.999 960c-46 0 -91.499 -11.165 -136.499 -33.498
s-81.5 -51 -109.5 -86s-42 -69.833 -42 -104.5v-160c0 -43.333 10.167 -93.166 30.5 -149.499s50.5 -100.833 90.5 -133.5l-281 -133c-2 -0.666992 -4.33301 -1.66699 -7 -3s-7.66699 -4.33301 -15 -9s-13.833 -9.33398 -19.5 -14.001s-10.834 -10.5 -15.501 -17.5
s-7 -13.5 -7 -19.5v-97c0 -17.333 6.16699 -32.166 18.5 -44.499s27.5 -18.5 45.5 -18.5h896c17.333 0 32.166 6.16699 44.499 18.5s18.5 27.166 18.5 44.499v97c0 6.66699 -2.16699 13.5 -6.5 20.5s-9.66602 13 -15.999 18s-12.5 9.5 -18.5 13.5s-11.333 7 -16 9l-6 2
l-279 133c40 31.333 69.833 74.666 89.5 129.999s29.5 106.333 29.5 153v160c0 26 -8.5 52.5 -25.5 79.5s-38.833 51.167 -65.5 72.5s-57.667 38.666 -93 51.999s-70 20 -104 20v0z" />
    <glyph glyph-name="trophy" unicode="&#xe006;" 
d="M736 32h-450c-8.66699 0 -16.167 -3.16699 -22.5 -9.5s-9.5 -13.833 -9.5 -22.5s3.16699 -16.167 9.5 -22.5s13.833 -9.5 22.5 -9.5h450c8.66699 0 16.167 3.16699 22.5 9.5s9.5 13.833 9.5 22.5s-3.16699 16.167 -9.5 22.5s-13.833 9.5 -22.5 9.5zM1017 838
c-0.666992 4 -1.99707 7.49902 -3.99707 10.499s-4.33301 5.66699 -7 8s-5.66699 4.16602 -9 5.49902s-7 2 -11 2h-157v32c0 8.66699 -3 16.167 -9 22.5s-13.667 9.5 -23 9.5h-575c-8.66699 0 -16.167 -3.16699 -22.5 -9.5s-9.5 -13.833 -9.5 -22.5v-32h-152
c-4.66699 0 -9.33398 -1.16699 -14.001 -3.5s-8.5 -5.33301 -11.5 -9s-4.83301 -8.16699 -5.5 -13.5c-0.666992 -3.33301 -1.5 -8.16602 -2.5 -14.499s-1.66699 -17.333 -2 -33s0.5 -31 2.5 -46s6.5 -31.667 13.5 -50s16.5 -34.833 28.5 -49.5
c35.333 -44 89.333 -67 162 -69c20.667 -61.333 55.167 -112.333 103.5 -153s103.166 -64.334 164.499 -71.001v-223h-95c-9.33301 0 -17 -3.16699 -23 -9.5s-9 -13.833 -9 -22.5s3 -16.167 9 -22.5s13.667 -9.5 23 -9.5h258c8.66699 0 16.167 3.16699 22.5 9.5
s9.5 13.833 9.5 22.5s-3.16699 16.167 -9.5 22.5s-13.833 9.5 -22.5 9.5h-99v223c62 6.66699 117.167 30.334 165.5 71.001s82.833 91.667 103.5 153c37.333 0.666992 70 6.83398 98 18.501s51 28.5 69 50.5c37.333 46 51.333 106.333 42 181
c-0.666992 4.66699 -1.33398 8.66699 -2.00098 12zM96.0029 684.999c-22 27.333 -31.667 65.666 -29 114.999h123v-108v-10.5c0 -3.66699 0.166992 -7.16699 0.5 -10.5l1 -10l1 -10c0.333008 -3.33301 0.833008 -6.66602 1.5 -9.99902c-22 2 -41.167 6.66699 -57.5 14
s-29.833 17.333 -40.5 30zM765.003 691.999c0 -37.333 -6.66699 -73.167 -20 -107.5s-31.5 -64 -54.5 -89s-50.167 -44.833 -81.5 -59.5s-64.333 -22 -99 -22c-70.667 0 -131 27.167 -181 81.5s-75 119.833 -75 196.5v172h511v-172zM928.003 684.998
c-11.333 -12.667 -25.5 -22.834 -42.5 -30.501s-37.167 -12.167 -60.5 -13.5c1.33301 8.66699 2.33301 17.167 3 25.5s1 16.833 1 25.5v108h128c2 -49.333 -7.66699 -87.666 -29 -114.999z" />
    <glyph glyph-name="speedometer" unicode="&#xe007;" 
d="M512 924c-69.333 0 -135.497 -13.5039 -198.497 -40.5039s-117.333 -63.333 -163 -109s-82 -100.167 -109 -163.5s-40.5 -129.666 -40.5 -198.999c0 -88 21.167 -170.333 63.5 -247s101.166 -138.667 176.499 -186c7.33301 -4.66699 15.333 -6 24 -4
s15.334 6.66699 20.001 14s6 15.333 4 24s-6.66699 15.334 -14 20.001c-54 34 -98.667 77 -134 129l34 20c7.33301 4 12.166 10.333 14.499 19s1.33301 16.834 -3 24.501s-10.833 12.667 -19.5 15s-16.667 1.16602 -24 -3.50098l-34 -19
c-12 25.333 -21.667 51.666 -29 78.999s-12 55.333 -14 84h35c9.33301 0 17 3.16699 23 9.5s9 13.833 9 22.5s-3 16.167 -9 22.5s-13.667 9.5 -23 9.5h-35c4 58 19 113 45 165l32 -19c4.66699 -2.66699 10 -4 16 -4c12 0 21 5.33301 27 16
c4.66699 7.33301 5.83398 15.333 3.50098 24s-7.16602 15 -14.499 19l-32 19c32.667 47.333 72.667 87 120 119l18 -31c6 -10.667 15.333 -16 28 -16c5.33301 0 10.666 1.33301 15.999 4c3.33301 2 6.33301 4.83301 9 8.5s4.5 7.33398 5.5 11.001s1.33301 7.66699 1 12
s-1.83301 8.5 -4.5 12.5l-18 31c25.333 12 51.5 21.5 78.5 28.5s54.5 11.833 82.5 14.5v-40c0 -9.33301 3.16699 -17 9.5 -23s14 -9 23 -9s16.5 3 22.5 9s9 13.667 9 23v40c58 -4 113 -18.667 165 -44l-18 -30c-0.666992 -2 -1.33398 -3.83301 -2.00098 -5.5
s-1.16699 -3.5 -1.5 -5.5s-0.5 -3.83301 -0.5 -5.5s0.166992 -3.5 0.5 -5.5s0.833008 -3.83301 1.5 -5.5s1.5 -3.33398 2.5 -5.00098s2 -3.16699 3 -4.5s2.16699 -2.66602 3.5 -3.99902s3 -2.33301 5 -3l4 -2c1.33301 -0.666992 2.66602 -1.16699 3.99902 -1.5
s2.66602 -0.5 3.99902 -0.5h4c2.66699 0 5.33398 0.333008 8.00098 1s5.16699 1.66699 7.5 3s4.66602 3 6.99902 5s4.16602 4.33301 5.49902 7l17 30c47.333 -32.667 87 -72.334 119 -119.001l-30 -18c-4 -2 -7.16699 -4.66699 -9.5 -8s-4.16602 -7 -5.49902 -11
s-1.66602 -8.16699 -0.999023 -12.5s2 -8.16602 4 -11.499c3.33301 -5.33301 7.5 -9.33301 12.5 -12s10.167 -4 15.5 -4c2.66699 0 5.33398 0.333008 8.00098 1s5.33398 1.66699 8.00098 3l30 17c25.333 -51.333 40 -106 44 -164h-35
c-8.66699 0 -16.167 -3.16699 -22.5 -9.5s-9.5 -13.833 -9.5 -22.5s3.16699 -16.167 9.5 -22.5s13.833 -9.5 22.5 -9.5h35c-4 -56.667 -18 -110.334 -42 -161.001l-32 18c-8 4.66699 -16.167 5.83398 -24.5 3.50098s-14.833 -7.5 -19.5 -15.5
c-2 -3.33301 -3.33301 -7.16602 -4 -11.499s-0.333984 -8.5 0.999023 -12.5s3.16602 -7.66699 5.49902 -11s5.5 -6 9.5 -8l32 -19c-36 -53.333 -82 -97.333 -138 -132c-7.33301 -4.66699 -12 -11.167 -14 -19.5s-0.666992 -16.5 4 -24.5c2 -2.66699 4.5 -5.16699 7.5 -7.5
s6.16699 -4.16602 9.5 -5.49902s6.66602 -2 9.99902 -2c6 0 11.667 1.66699 17 5c76 46.667 135.5 108.5 178.5 185.5s64.5 160.5 64.5 250.5c0 68.667 -13.5 134.667 -40.5 198s-63.333 117.833 -109 163.5s-100 82 -163 109s-129.167 40.5 -198.5 40.5zM748.003 511.996
c5.33301 3.33301 9.33301 7.50195 12 12.502s4 10.167 4 15.5s-1.33301 10.666 -4 15.999c-4.66699 7.33301 -11.167 12.166 -19.5 14.499s-16.5 1.5 -24.5 -2.5l-174 -101c-10 6 -20.333 9 -31 9c-17.333 0 -32.333 -6.33301 -45 -19s-19 -27.667 -19 -45
c0 -11.333 2.83301 -22 8.5 -32s13.5 -17.833 23.5 -23.5s20.667 -8.5 32 -8.5c17.333 0 32.333 6.33301 45 19s19 27.667 19 45z" />
    <glyph glyph-name="social-youtube" unicode="&#xe008;" 
d="M941 770c-8.66699 6 -20.332 11.3301 -34.999 15.9971s-37 9.5 -67 14.5s-72.833 9 -128.5 12s-121.834 4.5 -198.501 4.5c-232 0 -370.333 -13.667 -415 -41c-52.667 -31.333 -84.334 -123.666 -95.001 -276.999c-1.33301 -20 -2.33301 -39 -3 -57
c0.666992 -22.667 2.16699 -46.5 4.5 -71.5s6.5 -55.667 12.5 -92s16 -69 30 -98s30.667 -49.5 50 -61.5c44.667 -26.667 183.334 -40 416.001 -40c242.667 0 385.667 15.333 429 46c17.333 12.667 32 32.667 44 60s20.667 58 26 92s8.83301 63.833 10.5 89.5
s2.83398 51.167 3.50098 76.5c-0.666992 22.667 -1.83398 46.5 -3.50098 71.5s-5 55.833 -10 92.5s-13.5 69.834 -25.5 99.501s-27 50.834 -45 63.501zM903.002 176.997c-6 -4 -17.3311 -8.16699 -33.998 -12.5s-56.5 -9 -119.5 -14s-142.167 -7.5 -237.5 -7.5
c-92.667 0 -169.667 2.33301 -231 7s-100.333 8.83398 -117 12.501s-28.334 7.5 -35.001 11.5c-16.667 10 -31.5 39.333 -44.5 88s-20.167 108.667 -21.5 180c1.33301 72 8.66602 134.167 21.999 186.5s28.333 83.5 45 93.5c6 3.33301 17.333 7 34 11s55.667 8.33301 117 13
s138.333 7 231 7c95.333 0 174.5 -2.5 237.5 -7.5s102.833 -9.66699 119.5 -14s28 -8.83301 34 -13.5c7.33301 -4.66699 14.333 -14.667 21 -30s12.667 -34.5 18 -57.5s9.66602 -50.833 12.999 -83.5s5.33301 -67.334 6 -104.001c-0.666992 -72 -6.66699 -131.5 -18 -178.5
s-24.666 -76.167 -39.999 -87.5zM720.004 472.997l-287.998 176.999c-10.667 6.66699 -21.334 6.83398 -32.001 0.500977s-16 -15.833 -16 -28.5v-353c0 -12.667 5.33301 -22 16 -28c5.33301 -2.66699 10.666 -4 15.999 -4c2.66699 0 5.5 0.333008 8.5 1s5.5 2 7.5 4
l288 176c10.667 6.66699 16 16 16 28c-0.666992 12 -6 21 -16 27zM448.006 325.996v240l194 -120z" />
    <glyph glyph-name="social-twitter" unicode="&#xe009;" 
d="M684 801c53.333 0 98.333 -18.6631 135 -55.9961c41.333 8 80 22.333 116 43c-14 -42.667 -40.667 -75.334 -80 -98.001c36.667 4 71.667 13.333 105 28c-8 -12 -16.833 -23.5 -26.5 -34.5s-20 -21.333 -31 -31s-22.5 -18.834 -34.5 -27.501c0.666992 -8 1 -15.667 1 -23
c0 -39.333 -5.16699 -79 -15.5 -119s-25.333 -79 -45 -117s-44.667 -73.333 -75 -106s-64.333 -61.334 -102 -86.001s-81 -44 -130 -58s-100.833 -21 -155.5 -21c-102 0 -196 26.667 -282 80l21.5 -2c7 -0.666992 14.5 -1 22.5 -1c85.333 0 161.333 25.667 228 77
c-40 0.666992 -75.667 12.5 -107 35.5s-53 52.5 -65 88.5l11.5 -2c3.66699 -0.666992 7.5 -1.16699 11.5 -1.5s8 -0.5 12 -0.5c16.667 0 32.667 2.33301 48 7c-42 8 -77 28.333 -105 61s-42 70.667 -42 114v2c26 -14 53.667 -21.333 83 -22
c-16.667 10.667 -31 23.5 -43 38.5s-21.5 32 -28.5 51s-10.5 38.5 -10.5 58.5c0 16 2.16699 31.667 6.5 47s10.5 29.666 18.5 42.999c46 -55.333 101.833 -99.333 167.5 -132s136.167 -51 211.5 -55c-3.33301 13.333 -5 27 -5 41c0 49.333 18 91.333 54 126
s79.333 52 130 52zM684 865.004c-62 0 -116.333 -20.1689 -163 -60.502s-74 -90.166 -82 -149.499c-107.333 21.333 -195.333 73 -264 155c-12.667 15.333 -29 23 -49 23l-5 -1c-22 -1.33301 -38.667 -11.333 -50 -30c-22.667 -38 -34 -79 -34 -123
c0 -28.667 5 -56.334 15 -83.001c-10.667 -12.667 -16 -27 -16 -43v-2c0 -63.333 22 -118.333 66 -165c-1.33301 -5.33301 -1.83301 -10.833 -1.5 -16.5s1.16602 -11.167 2.49902 -16.5c14.667 -43.333 39.334 -79.666 74.001 -108.999
c-11.333 -2.66699 -22.833 -4.66699 -34.5 -6s-23.167 -2 -34.5 -2c-13.333 0 -25.666 0.666992 -36.999 2l-7 1c-14 0 -26.5 -4 -37.5 -12s-18.833 -18.333 -23.5 -31c-4.66699 -14 -4.5 -28.167 0.5 -42.5s13.833 -25.166 26.5 -32.499c96 -60 201.333 -90 316 -90
c70.667 0 137.334 10.5 200.001 31.5s117 49.833 163 86.5s85.833 78.834 119.5 126.501s59.334 98.667 77.001 153s26.834 109.5 27.501 165.5c30 24.667 56 53 78 85c4.66699 5.33301 8 11.333 10 18s3 13.667 3 21c0 22 -9 39.333 -27 52c2 8.66699 2.66699 17 2 25
s-3 15.833 -7 23.5s-9.33301 14.167 -16 19.5c-12 9.33301 -25.667 14 -41 14c-2.66699 0 -5.33398 -0.166992 -8.00098 -0.5s-5.33398 -0.833008 -8.00098 -1.5s-5.33398 -1.5 -8.00098 -2.5s-5.33398 -2.16699 -8.00098 -3.5c-20.667 -12.667 -43 -22.334 -67 -29.001
c-45.333 33.333 -96 50 -152 50z" />
    <glyph glyph-name="social-tumblr" unicode="&#xe00a;" 
d="M528 896l0.000976562 -223.998h224v-96h-223v-278c0 -17.333 0.166992 -32.5 0.5 -45.5s1.16602 -24 2.49902 -33s3 -16.167 5 -21.5c1.33301 -3.33301 3 -6.66602 5 -9.99902s4.66699 -6.83301 8 -10.5s6.83301 -7 10.5 -10s8.16699 -5.83301 13.5 -8.5s11 -5 17 -7
s12.667 -3.66699 20 -5s15 -2 23 -2c58 0 108 15.667 150 47v-149c-22 -10.667 -56.333 -21.334 -103 -32.001c-30.667 -7.33301 -63.667 -11 -99 -11c-102 0 -169 40 -201 120c-8 21.333 -12 52.666 -12 93.999v362h-129v98c8.66699 0 18 1 28 3s21.833 5.66699 35.5 11
s26.5 13.333 38.5 24s23.333 23.667 34 39s19.167 35.666 25.5 60.999s9.5 53.333 9.5 84h117zM528.001 960.002l-116.999 0.000976562c-17.333 0 -32.333 -6.16699 -45 -18.5s-19 -27.5 -19 -45.5c0 -20 -1.5 -38.167 -4.5 -54.5s-7 -29.833 -12 -40.5
s-10.833 -20 -17.5 -28s-13.334 -14.167 -20.001 -18.5s-13.667 -7.83301 -21 -10.5s-13.333 -4.33398 -18 -5.00098s-9.33398 -1 -14.001 -1c-11.333 0 -21.833 -2.83301 -31.5 -8.5s-17.5 -13.334 -23.5 -23.001s-9 -20.167 -9 -31.5v-98c0 -8.66699 1.5 -17 4.5 -25
s7.5 -15 13.5 -21s13 -10.667 21 -14s16.333 -5 25 -5h65v-298c0 -49.333 5.66699 -88.333 17 -117c6 -16 13.333 -31 22 -45s20.334 -28.333 35.001 -43s31 -27.167 49 -37.5s40.333 -18.833 67 -25.5s55.667 -10 87 -10c40.667 0 78.667 4 114 12l7 2
c46 10.667 82.333 22.334 109 35.001c10.667 5.33301 19.334 13.333 26.001 24s10 22 10 34v149c0 26.667 -11.667 46 -35 58c-9.33301 4 -19 6 -29 6c-14 0 -26.667 -4 -38 -12c-30.667 -23.333 -68 -35 -112 -35c-18 0 -30.333 4 -37 12
c-0.666992 2.66699 -1.33398 6 -2.00098 10s-1.16699 12.167 -1.5 24.5s-0.5 26.5 -0.5 42.5v214h159c18 0 33.167 6.33301 45.5 19s18.5 27.667 18.5 45v96c0 18 -6.16699 33.167 -18.5 45.5s-27.5 18.5 -45.5 18.5h-160v160c0 18 -6.16699 33.167 -18.5 45.5
s-27.5 18.5 -45.5 18.5v0z" />
    <glyph glyph-name="social-facebook" unicode="&#xe00b;" 
d="M582 880l6 -0.998047h83v-96h-83c-4.66699 0 -9.16699 -0.333008 -13.5 -1s-7.83301 -1.83398 -10.5 -3.50098s-5.16699 -3.5 -7.5 -5.5s-4.33301 -4 -6 -6s-3 -4.16699 -4 -6.5s-1.66699 -4.33301 -2 -6l-1 -5c-0.333008 -1.66699 -0.5 -2.83398 -0.5 -3.50098v-2v-152
h162l-23 -96h-139v-480h-96v480h-128v96h128v149c0 20.667 2.66699 39.167 8 55.5s12.5 29.166 21.5 38.499s18.167 17.333 27.5 24s19.666 11.334 30.999 14.001s20.333 4.5 27 5.5s13.334 1.5 20.001 1.5zM582 944.002c-41.333 0 -78.333 -10 -111 -30
c-58.667 -35.333 -88 -93 -88 -173v-85h-64c-17.333 0 -32.333 -6.33301 -45 -19s-19 -27.667 -19 -45v-96c0 -17.333 6.33301 -32.333 19 -45s27.667 -19 45 -19h64v-415c0 -18 6.16699 -33.167 18.5 -45.5s27.5 -18.5 45.5 -18.5h96c17.333 0 32.333 6.16699 45 18.5
s19 27.5 19 45.5v415h75c14.667 0 27.667 4.33301 39 13s19 19.667 23 33l22 96c6 20.667 2.66699 39.5 -10 56.5s-29.667 25.5 -51 25.5h-98v63h64c17.333 0 32.333 6.33301 45 19s19 27.667 19 45v93v3c0 18 -6.16699 33.167 -18.5 45.5s-27.166 18.5 -44.499 18.5h-82
c-2.66699 0.666992 -5.33398 1 -8.00098 1z" />
    <glyph glyph-name="social-dropbox" unicode="&#xe00c;" 
d="M1023.5 735.5c-1 11 -6.16602 19.167 -15.499 24.5l-285 178c-12.667 8 -25 7.33301 -37 -2l-174 -141l-174 141c-12 9.33301 -24.333 10 -37 2l-285 -178c-9.33301 -6 -14.5 -14.333 -15.5 -25s2.83301 -19.667 11.5 -27l165 -138l-141 -112
c-8.66699 -6.66699 -12.834 -15.334 -12.501 -26.001s5.16602 -19 14.499 -25l131 -88c-7.33301 -6 -11 -13.667 -11 -23v-129c0 -11.333 5 -20.333 15 -27l322 -182c5.33301 -3.33301 11 -5 17 -5c2.66699 0 5.5 0.333008 8.5 1s5.83301 2 8.5 4l318 182
c10 6.66699 15 15.667 15 27v151v6l124 83c8.66699 6 13.334 14.333 14.001 25c0 5.33301 -1 10.333 -3 15s-5 8.33398 -9 11.001l-141 112l165 138c8.66699 7.33301 12.5 16.5 11.5 27.5zM737.001 569l-225 -140l-225 140l225 147zM87.001 729l228 143l143 -115l-228 -148z
M230.001 530l226 -142l-128 -98l-218 145zM222.001 284l89 -60c6 -3.33301 12.333 -5 19 -5s13 2 19 6l129 99v-282l-256 143v99zM798.001 185l-255.999 -145v287l133 -102c2.66699 -2 5.66699 -3.5 9 -4.5s6.66602 -1.5 9.99902 -1.5s6.5 0.5 9.5 1.5
s5.83301 2.16699 8.5 3.5l86 58v-97v0zM913.002 436l-218 -146l-127 98l226 142zM794.002 609l-228 148l143 115l228 -143z" />
    <glyph glyph-name="social-dribbble" unicode="&#xe00d;" 
d="M512 960c-34.667 0 -68.5 -3.33301 -101.5 -10s-64.833 -16.667 -95.5 -30l-6 -3c-92 -40 -166.5 -102.333 -223.5 -187s-85.5 -178.667 -85.5 -282c0 -69.333 13.5 -135.5 40.5 -198.5s63.5 -117.5 109.5 -163.5s100.5 -82.5 163.5 -109.5s129.167 -40.5 198.5 -40.5
s135.5 13.5 198.5 40.5s117.5 63.5 163.5 109.5s82.5 100.5 109.5 163.5s40.5 129.167 40.5 198.5c0 55.333 -8.66699 109 -26 161s-41.833 99 -73.5 141s-68.5 78.833 -110.5 110.5s-89 56.167 -141 73.5s-105.667 26 -161 26zM960 448
c0 -1.33301 -0.167969 -3.33398 -0.500977 -6.00098s-0.5 -4.33398 -0.5 -5.00098c-103.333 28 -212 29.333 -326 4c-3.33301 8 -6.83301 15.833 -10.5 23.5l-11 23.5l-11.5 24c-4 8 -8.33301 16 -13 24c0 0.666992 -0.5 1.83398 -1.5 3.50098s-1.83301 3.16699 -2.5 4.5
c73.333 28 130.833 60 172.5 96s71.834 71.333 90.501 106c75.333 -85.333 113.333 -184.666 114 -297.999zM797.999 792.999c-4 -9.33301 -8.83105 -18.667 -14.498 -28s-15 -21.333 -28 -36s-27.833 -28.834 -44.5 -42.501s-38.834 -28.334 -66.501 -44.001
s-58.167 -29.5 -91.5 -41.5c-62.667 114 -121 205.333 -175 274c43.333 14 88 21 134 21c35.333 0 70.166 -4.16699 104.499 -12.5s66.5 -20.166 96.5 -35.499s58.333 -33.666 85 -54.999zM316.001 849.998c12 -14 25.002 -30.667 39.002 -50s33.667 -49.166 59 -89.499
s51 -83.833 77 -130.5c-46.667 -14 -93.334 -25.167 -140.001 -33.5s-88.5 -13.333 -125.5 -15s-67 -2.33398 -90 -2.00098s-44.167 1.16602 -63.5 2.49902c13.333 70 41.666 132.833 84.999 188.5s96.333 98.834 159 129.501zM64.0029 447.998
c0 6 0.333984 12.9971 1.00098 20.9971c26.667 -3.33301 56 -5 88 -5c122 0 245 19.667 369 59c1.33301 -2.66699 2.83301 -5.5 4.5 -8.5s3.16699 -5.83301 4.5 -8.5l20 -40.5c6.66699 -13.667 13 -27.5 19 -41.5c-5.33301 -1.33301 -10.833 -3 -16.5 -5l-17 -6
c-5.66699 -2 -11.167 -4.16699 -16.5 -6.5l-16.5 -7l-17.5 -7.5c-42.667 -19.333 -82 -41.166 -118 -65.499s-65.833 -48.666 -89.5 -72.999s-42.334 -45.166 -56.001 -62.499s-25.167 -34.333 -34.5 -51c-39.333 40.667 -69.833 87.5 -91.5 140.5
s-32.5 108.833 -32.5 167.5zM236.004 95.9951c6.66699 12 15.1689 25.168 25.502 39.501s26.166 33.5 47.499 57.5s49.833 48.667 85.5 74s75.167 47.666 118.5 66.999c8.66699 4 17.667 7.83301 27 11.5l27.5 10.5c9 3.33301 18.167 6.33301 27.5 9
c44.667 -114.667 74 -225 88 -331c-26.667 -10.667 -54.334 -19 -83.001 -25s-58 -9 -88 -9c-102.667 0 -194.667 32 -276 96zM744.006 64.9961c-15.333 102.667 -44 208 -86 316c34 6.66699 68.167 10.667 102.5 12s64.666 0.5 90.999 -2.5s47 -6 62 -9
s28.167 -5.83301 39.5 -8.5c-7.33301 -43.333 -20.666 -84.333 -39.999 -123s-43.333 -73.667 -72 -105s-61 -58 -97 -80z" />
    <glyph glyph-name="shield" unicode="&#xe00e;" 
d="M908 816c-6 5.33301 -12.832 9.49609 -20.499 12.4961s-15.5 4.5 -23.5 4.5h-2h-2l-1 -0.5c-0.666992 -0.333008 -1.5 -0.5 -2.5 -0.5h-3h-4h-5h-5.5h-6c-48 0 -90.667 4.66699 -128 14c-19.333 4.66699 -40 14 -62 28s-43.167 29.5 -63.5 46.5s-31.5 26.167 -33.5 27.5
c-10.667 7.33301 -22.334 11 -35.001 11c-6.66699 0 -13 -0.833008 -19 -2.5s-11.667 -4.5 -17 -8.5l-5 -5c-3.33301 -3.33301 -7.83301 -7.5 -13.5 -12.5l-19.5 -17.5c-7.33301 -6.66699 -15.666 -13.334 -24.999 -20.001s-18.833 -13 -28.5 -19s-20 -11.5 -31 -16.5
s-21.833 -8.83301 -32.5 -11.5c-37.333 -9.33301 -80.333 -14 -129 -14h-8.5h-7.5h-5.5c-1.66699 0 -2.83398 0.166992 -3.50098 0.5s-1.33398 0.5 -2.00098 0.5h-2h-2c-8 0 -15.833 -1.5 -23.5 -4.5s-14.5 -7.5 -20.5 -13.5c-13.333 -12.667 -20 -28 -20 -46v-160
c0 -80.667 7.33301 -155 22 -223s32.834 -124.167 54.501 -168.5s47.5 -84.333 77.5 -120s57.667 -62.667 83 -81s51.833 -34.166 79.5 -47.499s47.167 -21.5 58.5 -24.5s20.666 -5.16699 27.999 -6.5c2 -0.666992 4 -1 6 -1h6c3.33301 0 7 0.333008 11 1
c4.66699 0.666992 10.667 2 18 4s20.5 6.66699 39.5 14s37.5 15.833 55.5 25.5s39 23.834 63 42.501s46.167 39.5 66.5 62.5s40.833 51.833 61.5 86.5s38.334 72.334 53.001 113.001s26.5 88.834 35.5 144.501s13.5 115.167 13.5 178.5v160
c0 18.667 -6.66699 34.334 -20 47.001zM864.001 608.996c0 -238 -64.0029 -412.334 -192.003 -523.001c-54 -45.333 -107.667 -73.666 -161 -84.999c-5.33301 0.666992 -12.166 2.16699 -20.499 4.5s-24.666 9.33301 -48.999 21s-47.5 25.667 -69.5 42
s-46.5 40.5 -73.5 72.5s-50.167 68.167 -69.5 108.5s-35.666 91.666 -48.999 153.999s-20 130.833 -20 205.5v160c0.666992 0 1.5 -0.166992 2.5 -0.5s2.16699 -0.5 3.5 -0.5h5h6h6.5h7.5c53.333 0 101.666 5.33301 144.999 16c26 6 53.5 18.333 82.5 37
s51.833 35.667 68.5 51l24 23c6.66699 -6.66699 15.834 -15.167 27.501 -25.5s33.167 -25.666 64.5 -45.999s60 -33.5 86 -39.5c43.333 -10.667 91.333 -16 144 -16h16c5.33301 0 9.33301 0.333008 12 1h3v-160zM647.998 613.995c-6.66699 6 -14.334 9 -23.001 9
s-16.334 -3 -23.001 -9l-90 -91l-91 91c-6 6 -13.5 9 -22.5 9s-16.5 -3 -22.5 -9c-4 -4 -6.66699 -8.83301 -8 -14.5s-1.33301 -11.167 0 -16.5s4 -10 8 -14l91 -91l-91 -91c-6 -6 -9 -13.333 -9 -22s3 -16.167 9 -22.5s13.5 -9.5 22.5 -9.5s16.5 3 22.5 9l91 91l90 -91
c6.66699 -6 14.334 -9 23.001 -9s16.334 3 23.001 9c11.333 12 13 25 5 39c-2 2.66699 -3.66699 4.66699 -5 6l-91 91l91 91c4 4 6.66699 8.66699 8 14s1.33301 10.833 0 16.5s-4 10.5 -8 14.5z" />
    <glyph glyph-name="screen-tablet" unicode="&#xe00f;" 
d="M832 960h-640c-17.333 0 -33.333 -4.33301 -48 -13s-26.334 -20.334 -35.001 -35.001s-13 -30.667 -13 -48v-832c0 -26.667 9.33301 -49.334 28 -68.001s41.334 -28 68.001 -28h640c26.667 0 49.334 9.33301 68.001 28s28 41.334 28 68.001v832
c0 17.333 -4.33301 33.333 -13 48s-20.334 26.334 -35.001 35.001s-30.667 13 -48 13zM864 32c0 -8.66699 -3.16699 -16.167 -9.5 -22.5s-13.833 -9.5 -22.5 -9.5h-640c-8.66699 0 -16.167 3.16699 -22.5 9.5s-9.5 13.833 -9.5 22.5v832c0 8.66699 3.16699 16.167 9.5 22.5
s13.833 9.5 22.5 9.5h640c8.66699 0 16.167 -3.16699 22.5 -9.5s9.5 -13.833 9.5 -22.5v-832zM512 160c-17.333 0 -32.333 -6.33301 -45 -19s-19 -27.667 -19 -45s6.33301 -32.333 19 -45s27.667 -19 45 -19s32.333 6.33301 45 19s19 27.667 19 45
c0 11.333 -2.83301 22 -8.5 32s-13.5 17.833 -23.5 23.5s-20.667 8.5 -32 8.5zM576 864h-128c-8.66699 0 -16.167 -3.16699 -22.5 -9.5s-9.5 -13.833 -9.5 -22.5s3.16699 -16.167 9.5 -22.5s13.833 -9.5 22.5 -9.5h128c8.66699 0 16.167 3.16699 22.5 9.5
s9.5 13.833 9.5 22.5s-3.16699 16.167 -9.5 22.5s-13.833 9.5 -22.5 9.5z" />
    <glyph glyph-name="screen-smartphone" unicode="&#xe010;" 
d="M704 960h-384c-17.333 0 -33.333 -4.33301 -48 -13s-26.334 -20.334 -35.001 -35.001s-13 -30.667 -13 -48v-832c0 -26.667 9.33301 -49.334 28 -68.001s41.334 -28 68.001 -28h384c26.667 0 49.334 9.33301 68.001 28s28 41.334 28 68.001v832
c0 17.333 -4.33301 33.333 -13 48s-20.334 26.334 -35.001 35.001s-30.667 13 -48 13zM736 32c0 -8.66699 -3.16699 -16.167 -9.5 -22.5s-13.833 -9.5 -22.5 -9.5h-384c-8.66699 0 -16.167 3.16699 -22.5 9.5s-9.5 13.833 -9.5 22.5v832c0 8.66699 3.16699 16.167 9.5 22.5
s13.833 9.5 22.5 9.5h384c8.66699 0 16.167 -3.16699 22.5 -9.5s9.5 -13.833 9.5 -22.5v-832zM512.5 160c-17.667 0 -32.833 -6.33301 -45.5 -19s-19 -27.667 -19 -45c0 -11.333 2.83301 -22 8.5 -32s13.5 -17.833 23.5 -23.5s20.667 -8.5 32 -8.5s22 2.83301 32 8.5
s17.833 13.5 23.5 23.5s8.5 20.667 8.5 32c0 17.333 -6.16699 32.333 -18.5 45s-27.333 19 -45 19zM576.001 864h-128c-8.66699 0 -16.167 -3.16699 -22.5 -9.5s-9.5 -13.833 -9.5 -22.5s3.16699 -16.167 9.5 -22.5s13.833 -9.5 22.5 -9.5h128
c8.66699 0 16.167 3.16699 22.5 9.5s9.5 13.833 9.5 22.5s-3.16699 16.167 -9.5 22.5s-13.833 9.5 -22.5 9.5z" />
    <glyph glyph-name="screen-desktop" unicode="&#xe011;" 
d="M960 864h-896c-17.333 0 -32.333 -6.16699 -45 -18.5s-19 -27.5 -19 -45.5v-544c-0 -17.333 6.33301 -32.333 19 -45s27.667 -19 45 -19h416v-96h-160c-8.66699 0 -16.167 -3.16699 -22.5 -9.5s-9.5 -13.833 -9.5 -22.5s3.16699 -16.167 9.5 -22.5s13.833 -9.5 22.5 -9.5
h384c8.66699 0 16.167 3.16699 22.5 9.5s9.5 13.833 9.5 22.5s-3.16699 16.167 -9.5 22.5s-13.833 9.5 -22.5 9.5h-160v96h416c17.333 0 32.333 6.33301 45 19s19 27.667 19 45v544c0 18 -6.33301 33.167 -19 45.5s-27.667 18.5 -45 18.5zM960 256h-896v544h896v-544z" />
    <glyph glyph-name="plane" unicode="&#xe012;" 
d="M934 894c8.66699 0 16.001 -0.999023 22.001 -2.99902c1.33301 -4 2.16602 -9 2.49902 -15s0 -13.667 -1 -23s-4.66699 -19.666 -11 -30.999s-14.833 -22.333 -25.5 -33l-231 -231l2 -28c2.66699 -50.667 8 -137.334 16 -260.001
c6 -107.333 9.33301 -162.666 10 -165.999c0 -4 -1.33301 -7.66699 -4 -11c-4.66699 -4.66699 -10.667 -11.334 -18 -20.001s-15.333 -17.667 -24 -27l-98 267l-35 94l-71 -71l-130 -125l-19 -19v-25c-0.666992 -12.667 -0.666992 -42.667 0 -90v-54l1 -1l2 -1
c-4 6.66699 -6.66699 11.334 -8 14.001l-6 9c-38.667 61.333 -61.334 97.666 -68.001 108.999l-9 13l-13 9l-135 84c0.666992 0 1.33398 -0.666992 2.00098 -2l1 -1h2h46h9.5h10c1.66699 0 4.83398 -0.166992 9.50098 -0.5s8.16699 -0.5 10.5 -0.5h9.5h9.5h8.5h9h21l26 1
l18 18l126 130l71 71l-94 34l-269 100c9.33301 9.33301 18.166 17.666 26.499 24.999s15.166 13 20.499 17l7 4h2c4.66699 0 64.667 -3.66699 180 -11c126 -8.66699 209 -14 249 -16l29 -2l231 231c24.667 24.667 51.334 37 80.001 37zM934.001 958.001
c-20.667 0 -41.8379 -4.49023 -63.5049 -13.4902s-42.167 -23.167 -61.5 -42.5l-211 -210l-88.5 5.5l-112.5 7l-108 7c-34.667 2.33301 -63.167 4.16602 -85.5 5.49902s-34.166 2 -35.499 2h-2.5h-2.5c-4 0 -8.16699 -0.333008 -12.5 -1s-9.83301 -2.33398 -16.5 -5.00098
s-13 -6.66699 -19 -12l-73 -66c-12.667 -12.667 -18 -26.334 -16 -41.001c1.33301 -14.667 10 -25.334 26 -32.001c42 -16.667 143.333 -54.334 304 -113.001l-126 -130h-3.5h-3.5h-4.5h-4.5h-4c-14 0 -36.167 0.166992 -66.5 0.5s-48.833 0.5 -55.5 0.5h-7h-3.5h-4
c-1 0 -2.66699 -0.166992 -5 -0.5s-4.5 -0.833008 -6.5 -1.5s-4.66699 -1.83398 -8 -3.50098s-6.66602 -3.5 -9.99902 -5.5s-7.16602 -4.5 -11.499 -7.5s-8.83301 -6.5 -13.5 -10.5l-3 -3c-9.33301 -10 -14.333 -20.667 -15 -32s4 -21 14 -29
c14.667 -12 71.334 -47.667 170.001 -107l73 -116c18.667 -30.667 28.667 -47 30 -49c6.66699 -10.667 16.334 -16.334 29.001 -17.001h1c12 0 23.667 5.66699 35 17c4.66699 5.33301 8.83398 10.5 12.501 15.5s6.5 9.5 8.5 13.5l5 10
c1.33301 2.66699 2.16602 5.5 2.49902 8.5s0.666016 5.16699 0.999023 6.5s0.333008 3 0 5l-0.5 3c0.666992 6.66699 0.833984 29.667 0.500977 69s-0.166016 65.666 0.500977 78.999l130 126l65 -177c28 -76 43.667 -117.667 47 -125c6 -15.333 16.333 -24 31 -26h5
c6 0 12.167 1.5 18.5 4.5s12.166 7.16699 17.499 12.5l13.5 14l26 28.5c11.667 13 20.5 23.167 26.5 30.5c13.333 16 19.333 34 18 54c0 1.33301 -1.5 28.666 -4.5 81.999l-11 187.5l-9.5 156.5l211 211c17.333 18 30.833 37.167 40.5 57.5s14.834 39.166 15.501 56.499
s-0.833008 33 -4.5 47s-9.16699 24.333 -16.5 31c-14.667 14.667 -37.334 22 -68.001 22z" />
    <glyph glyph-name="notebook" unicode="&#xe013;" 
d="M849 960l-638 0.000976562c-14.667 0 -27.167 -3.33301 -37.5 -10s-17.666 -14.834 -21.999 -24.501s-6.5 -20.167 -6.5 -31.5v-127h-35c-8.66699 0 -16 -3.16699 -22 -9.5s-9 -13.833 -9 -22.5c0 -5.33301 1.33301 -10.5 4 -15.5s6.5 -8.83301 11.5 -11.5
s10.167 -4 15.5 -4h35v-129h-32c-5.33301 0 -10.5 -1.33301 -15.5 -4s-8.83301 -6.5 -11.5 -11.5s-4 -10.167 -4 -15.5c0 -8.66699 3 -16 9 -22s13.333 -9 22 -9h32v-130h-33c-4 0 -7.83301 -0.833008 -11.5 -2.5s-7 -3.83398 -10 -6.50098s-5.33301 -6 -7 -10
s-2.5 -8 -2.5 -12c0 -8.66699 3.16699 -16.167 9.5 -22.5s13.5 -9.5 21.5 -9.5h33v-128h-33c-2.66699 0 -5.33398 -0.333008 -8.00098 -1s-5.16699 -1.66699 -7.5 -3s-4.5 -3 -6.5 -5s-3.66699 -4.16699 -5 -6.5s-2.33301 -4.83301 -3 -7.5s-1 -5.33398 -1 -8.00098
c0 -8.66699 3.16699 -16.167 9.5 -22.5s13.5 -9.5 21.5 -9.5h33v-129c0 -23.333 6.83301 -39.833 20.5 -49.5s28.5 -14.5 44.5 -14.5h639c26.667 0 49.334 9.33301 68.001 28s28 41.334 28 68.001v832c0 26.667 -9.33301 49.334 -28 68.001s-41.334 28 -68.001 28z
M209 0.000976562l0.000976562 128.997h33c8.66699 0 16.167 3.16699 22.5 9.5s9.5 13.833 9.5 22.5c0 4 -0.833008 8 -2.5 12s-4 7.33301 -7 10s-6.33301 4.83398 -10 6.50098s-7.83398 2.5 -12.501 2.5h-33v128h33c6 0 11.333 1.5 16 4.5s8.5 6.83301 11.5 11.5
s4.5 10 4.5 16c0 8.66699 -3.16699 16 -9.5 22s-13.833 9 -22.5 9h-33v130h34c6 0 11.333 1.33301 16 4s8.33398 6.33398 11.001 11.001s4 10 4 16c0 4 -0.666992 8 -2 12s-3.5 7.33301 -6.5 10s-6.33301 4.83398 -10 6.50098s-7.83398 2.5 -12.501 2.5h-34v129h31
c8.66699 0 16 3 22 9s9 13.333 9 22s-3 16.167 -9 22.5s-13.333 9.5 -22 9.5h-31v127v2h2h510v-896h-512zM881.001 31.998c0 -8.66699 -3.16699 -16.167 -9.5 -22.5s-13.833 -9.5 -22.5 -9.5h-64v896h64c8.66699 0 16.167 -3.16699 22.5 -9.5s9.5 -13.833 9.5 -22.5v-832z
" />
    <glyph glyph-name="mustache" unicode="&#xe014;" 
d="M793 223c-24 0 -46.333 2.32715 -67 6.99414s-39.5 11.834 -56.5 21.501s-30.167 17.834 -39.5 24.501s-20.666 15.334 -33.999 26.001l-37 32c-4 3.33301 -7 6 -9 8s-4.83301 4.5 -8.5 7.5l-9 7.5c-2.33301 2 -4.83301 4 -7.5 6s-5 3.5 -7 4.5s-3.33301 1.83301 -4 2.5
h-2.5h-1.5h-4l-1 -1c-3.33301 -1.33301 -15.666 -11.333 -36.999 -30c-4.66699 -3.33301 -8.33398 -6.16602 -11.001 -8.49902l-10 -9c-4 -3.66699 -8 -7 -12 -10s-8 -6.16699 -12 -9.5l-3 -2c-15.333 -12 -27.666 -21.167 -36.999 -27.5s-22.333 -14 -39 -23
s-34.834 -15.5 -54.501 -19.5s-40.834 -6 -63.501 -6c-35.333 0 -69.333 7.5 -102 22.5s-59.334 35.167 -80.001 60.5c-40.667 50.667 -53.667 112.667 -39 186c2.66699 12 9.5 20 20.5 24s21.167 2 30.5 -6c16 -11.333 35.667 -17 59 -17c18.667 0 37.667 4.33301 57 13
c10 4 19.5 10.5 28.5 19.5s19 20.833 30 35.5s18.833 24.334 23.5 29.001c11.333 12.667 20.5 22.5 27.5 29.5s16.5 15.167 28.5 24.5s24.667 16.333 38 21s27.666 7 42.999 7c22 0 42.833 -4.16699 62.5 -12.5s38.5 -20.5 56.5 -36.5c17.333 16 35.833 28 55.5 36
s40.167 12 61.5 12c16 0 30.667 -2.16699 44 -6.5s26.166 -11.166 38.499 -20.499s22 -17.5 29 -24.5s16.5 -17.167 28.5 -30.5c4.66699 -4.66699 12.5 -14.167 23.5 -28.5s21.167 -26 30.5 -35s19 -15.5 29 -19.5c19.333 -8.66699 38.333 -13 57 -13
c26.667 0 47.334 6 62.001 18c10 6.66699 20.333 8 31 4c10.667 -4.66699 17.334 -12.667 20.001 -24c3.33301 -23.333 4.83301 -43.833 4.5 -61.5s-3.16602 -34.667 -8.49902 -51s-11 -29.833 -17 -40.5s-13 -21 -21 -31c-21.333 -26 -48.5 -46.667 -81.5 -62
s-67.5 -23 -103.5 -23zM510.5 433.994l4.50293 -0.000976562h5l1.5 -0.5l1.5 -0.5c7.33301 -0.666992 15.333 -3.66699 24 -9s16.334 -10.666 23.001 -15.999l31 -26c14 -12.667 25.667 -22.667 35 -30c12 -10 21.667 -17.667 29 -23s17.833 -11.833 31.5 -19.5
s28.5 -13.334 44.5 -17.001s33.333 -5.5 52 -5.5c17.333 0 34.666 2.5 51.999 7.5s33.166 12.167 47.499 21.5s26.666 20.333 36.999 33s18.166 26.334 23.499 41.001s8 30.667 8 48c-4 -1.33301 -8 -2.5 -12 -3.5s-8.16699 -1.83301 -12.5 -2.5s-9 -1.16699 -14 -1.5
s-10.167 -0.5 -15.5 -0.5c-28 0 -55.667 6 -83 18c-8.66699 4 -17.167 9 -25.5 15s-16 12.833 -23 20.5l-19.5 21.5c-6 6.66699 -12.333 14.167 -19 22.5s-12.334 14.833 -17.001 19.5c-20 22 -36.333 37.667 -49 47s-27 14 -43 14c-34 0 -65.333 -16.667 -94 -50
c-1.33301 -2 -2.66602 -3.5 -3.99902 -4.5s-2.83301 -2 -4.5 -3s-3.33398 -1.83301 -5.00098 -2.5s-3.33398 -1.16699 -5.00098 -1.5s-3.5 -0.5 -5.5 -0.5c-10 0 -18 4 -24 12c-12.667 14 -26.5 26 -41.5 36s-32.5 15 -52.5 15c-16 0 -30.333 -4.66699 -43 -14
s-28.667 -25 -48 -47l-20.5 -25l-24.5 -29.5c-6.66699 -7.66699 -15.5 -16 -26.5 -25s-21.5 -15.833 -31.5 -20.5c-28 -12 -55.667 -18 -83 -18c-18 0 -35.333 2.66699 -52 8c0 -34.667 10 -64.667 30 -90c14.667 -18.667 34 -33.334 58 -44.001s49 -16 75 -16
c12 0 23.5 0.666992 34.5 2s21.167 3.66602 30.5 6.99902s17.666 6.66602 24.999 9.99902s15.333 7.83301 24 13.5s15.5 10.334 20.5 14.001l20.5 15.5l3 3c4.66699 4 10 8.33301 16 13s10.5 8.33398 13.5 11.001s7.5 6.33398 13.5 11.001
c8.66699 8 15.334 13.833 20.001 17.5l16.5 12.5c6.33301 4.66699 11.833 8 16.5 10s9.33398 3.66699 14.001 5h1h3.5c1 0 2.83301 0.166992 5.5 0.5s4.83398 0.5 6.50098 0.5z" />
    <glyph glyph-name="mouse" unicode="&#xe015;" 
d="M514 960c-79.333 0 -147.5 -28 -204.5 -84s-85.5 -123.333 -85.5 -202v-452c0 -78.667 28.5 -146 85.5 -202s125.167 -84 204.5 -84c78.667 0 146 28 202 84s84 123.333 84 202v452c0 78.667 -28 146 -84 202s-123.333 84 -202 84zM736 222
c0 -61.333 -21.667 -113.67 -65 -157.003s-95.666 -65 -156.999 -65c-62 0 -115.167 21.833 -159.5 65.5s-66.5 95.834 -66.5 156.501v452c0 60.667 22.167 112.834 66.5 156.501s97.5 65.5 159.5 65.5c61.333 0 113.666 -21.667 156.999 -65s65 -95.666 65 -156.999v-452z
M512.5 767.996c-9 0 -16.667 -3.16699 -23 -9.5s-9.5 -13.833 -9.5 -22.5v-160c0 -8.66699 3.16699 -16.167 9.5 -22.5s14 -9.5 23 -9.5s16.5 3.16699 22.5 9.5s9 13.833 9 22.5v160c0 8.66699 -3 16.167 -9 22.5s-13.5 9.5 -22.5 9.5z" />
    <glyph glyph-name="magnet" unicode="&#xe016;" 
d="M960 900l-0.00292969 29c0 8.66699 -3 16.167 -9 22.5s-13.667 9.5 -23 9.5h-224c-9.33301 0 -17 -3.16699 -23 -9.5s-9 -13.833 -9 -22.5v-131v-397c0 -50.667 -13.5 -92.5 -40.5 -125.5s-63.833 -49.5 -110.5 -49.5c-48 0 -88.167 17 -120.5 51s-48.5 75.333 -48.5 124
v499v29c0 8.66699 -3 16.167 -9 22.5s-13.667 9.5 -23 9.5h-224c-9.33301 0 -17 -3.16699 -23 -9.5s-9 -13.833 -9 -22.5v-131v-0.5v-1.5v-410c0 -40.667 5.33301 -80.5 16 -119.5s25.5 -75 44.5 -108s42.333 -63.333 70 -91s57.834 -51.167 90.501 -70.5
s68.334 -34.5 107.001 -45.5s78.667 -16.5 120 -16.5c60.667 0 118.834 12 174.501 36s103.5 56 143.5 96s71.667 87.833 95 143.5s35 114.167 35 175.5v514zM895.997 897v-129h-160v129h160zM287.997 897v-129h-160v129h160zM511.997 -1c-70 0 -134.5 17.335 -193.5 52.002
s-105.5 81.667 -139.5 141s-51 124 -51 194v318h160v-303c0 -66.667 22.5 -123.167 67.5 -169.5s100.167 -69.5 165.5 -69.5c42.667 0 80.5 10.667 113.5 32s58.167 50 75.5 86s26 76.333 26 121v303h160v-318c0 -52.667 -10 -102.834 -30 -150.501
s-47.167 -88.834 -81.5 -123.501s-75.333 -62.167 -123 -82.5s-97.5 -30.5 -149.5 -30.5z" />
    <glyph glyph-name="magic-wand" unicode="&#xe017;" 
d="M1021 531l-103.002 153.002l51 179c3.33301 12 0.5 22.5 -8.5 31.5s-19.5 11.833 -31.5 8.5l-178 -52l-155 103c-10 7.33301 -20.667 8.16602 -32 2.49902s-17.333 -14.834 -18 -27.501l-5 -186l-147 -115c-4 -3.33301 -7.16699 -7.66602 -9.5 -12.999
s-2.83301 -11 -1.5 -17c0 -2 0.5 -4.16699 1.5 -6.5s2 -4.33301 3 -6s2.33301 -3.33398 4 -5.00098s3.5 -3.16699 5.5 -4.5s4 -2.33301 6 -3l138 -49c-2 -1.33301 -3 -2.33301 -3 -3l-531 -530c-4 -4 -6.66699 -8.83301 -8 -14.5s-1.33301 -11.167 0 -16.5s4 -10.333 8 -15
c6.66699 -6 14.334 -9 23.001 -9s16.334 3 23.001 9l530 531c2 2 3.66699 4.33301 5 7l54 -148c4.66699 -11.333 13 -18 25 -20c2 -0.666992 3.66699 -1 5 -1c10.667 0 19.334 4.33301 26.001 13l113 147l184 7c6 0 11.5 1.5 16.5 4.5s8.83301 7.16699 11.5 12.5
c5.33301 11.333 4.66602 22.333 -2.00098 33zM793.998 537.002c-10 0 -18.002 -4 -24.002 -12l-88 -113l-49 134c-3.33301 9.33301 -9.66602 15.666 -18.999 18.999l-134 49l112 88c2.66699 2 4.83398 4.16699 6.50098 6.5s3 5 4 8s1.5 6.16699 1.5 9.5l5 143l118 -80
c8.66699 -5.33301 17.667 -6.66602 27 -3.99902l137 40l-39 -137c-0.666992 -2 -1 -4 -1 -6v-5.5c0 -1.66699 0.166992 -3.5 0.5 -5.5s1 -3.83301 2 -5.5s1.83301 -3.16699 2.5 -4.5l81 -118z" />
    <glyph glyph-name="hourglass" unicode="&#xe018;" 
d="M833 895h-63.999v-215c0 -52 -14.667 -98.167 -44 -138.5s-74.333 -75.833 -135 -106.5c42.667 -21.333 77 -44.666 103 -69.999s45.333 -53.333 58 -84s19 -65.667 19 -105c0 -62.667 -0.333008 -121 -1 -175h64c8.66699 0 16.167 -3.16699 22.5 -9.5s9.5 -14 9.5 -23
s-3.16699 -16.5 -9.5 -22.5s-13.833 -9 -22.5 -9h-642c-8.66699 0 -16.167 3 -22.5 9s-9.5 13.5 -9.5 22.5s3.16699 16.667 9.5 23s13.833 9.5 22.5 9.5h66c-0.666992 57.333 -1 115.666 -1 174.999c0 58.667 14.167 108.5 42.5 149.5s73.5 77.5 135.5 109.5
c-60 30.667 -104.5 66 -133.5 106s-43.5 86.333 -43.5 139v215h-66c-8.66699 0 -16.167 3.16699 -22.5 9.5s-9.5 14 -9.5 23s3.16699 16.5 9.5 22.5s13.833 9 22.5 9h642c3.33301 0 6.66602 -0.5 9.99902 -1.5s6.33301 -2.5 9 -4.5s5 -4.33301 7 -7s3.5 -5.5 4.5 -8.5
s1.5 -6.5 1.5 -10.5c0 -8.66699 -3.16699 -16.167 -9.5 -22.5s-13.833 -9.5 -22.5 -9.5zM320.001 176c0 -59.333 0.332031 -117.666 0.999023 -174.999h384c0.666992 61.333 1 119.666 1 174.999c0 24 -2.66699 45.167 -8 63.5s-14.833 37 -28.5 56s-33.5 37.167 -59.5 54.5
s-58.667 34 -98 50c-31.333 -12.667 -58.333 -26 -81 -40s-41.167 -27.833 -55.5 -41.5s-25.666 -28.5 -33.999 -44.5s-14 -31.667 -17 -47s-4.5 -32.333 -4.5 -51zM705 895h-383.999v-215c0 -18 2.16699 -34.667 6.5 -50s12.666 -32.5 24.999 -51.5s32 -37.833 59 -56.5
s60.5 -36.334 100.5 -53.001c40.667 16.667 74.667 34.334 102 53.001s47 37.5 59 56.5s20.333 36.167 25 51.5s7 32 7 50v215z" />
    <glyph glyph-name="graduation" unicode="&#xe019;" 
d="M991 264l-0.00195312 258.001l16 8c5.33301 2.66699 9.5 6.66699 12.5 12s4.5 10.666 4.5 15.999c0 3.33301 -0.333008 6.33301 -1 9s-1.66699 5.16699 -3 7.5s-3.16602 4.66602 -5.49902 6.99902s-4.5 4.16602 -6.5 5.49902l-482 257c-10 6 -20.333 6 -31 0l-479 -258
c-10.667 -6 -16 -15.333 -16 -28c0 -6 1.5 -11.5 4.5 -16.5s7.16699 -8.83301 12.5 -11.5l210 -112c-2.66699 -4.66699 -4 -9.66699 -4 -15v-271c0 -10 3.66699 -18 11 -24c6 -6 15.5 -12.5 28.5 -19.5s42.333 -15.5 88 -25.5s98.834 -15 159.501 -15
c24.667 0 48 0.666992 70 2s41.5 3.33301 58.5 6s32.667 5.5 47 8.5s26.833 6.16699 37.5 9.5s19.834 6.5 27.501 9.5s14.334 6.16699 20.001 9.5s9.66699 5.83301 12 7.5s4.16602 3.16699 5.49902 4.5c4 2.66699 7 6.16699 9 10.5s3 8.83301 3 13.5v278
c0 2 -0.166992 4.16699 -0.5 6.5s-1.16602 4.5 -2.49902 6.5l130 68v-224c-6.66699 -4 -12.334 -8.83301 -17.001 -14.5s-8.33398 -12 -11.001 -19s-4 -14.5 -4 -22.5c0 -3.33301 0.333008 -6.66602 1 -9.99902s1.5 -6.5 2.5 -9.5s2.16699 -6 3.5 -9s3 -5.83301 5 -8.5
s4.16699 -5.16699 6.5 -7.5s4.83301 -4.5 7.5 -6.5s5.5 -3.83301 8.5 -5.5s6 -3 9 -4s6.33301 -1.83301 10 -2.5s7.16699 -1 10.5 -1c18 0 33.167 6.33301 45.5 19s18.5 27.667 18.5 45c0 24.667 -10.667 43.334 -32 56.001zM735.998 148.001
c-11.333 -5.33301 -24.668 -10.332 -40.001 -14.999s-39.833 -9.33398 -73.5 -14.001s-71.167 -7 -112.5 -7c-100.667 0 -175 12.333 -223 37v237l208 -110c2 -1.33301 4.33301 -2.33301 7 -3s5.33398 -1 8.00098 -1l15 4l211 111v-239zM509.996 340.002l-412 219l413 221
l413 -221z" />
    <glyph glyph-name="ghost" unicode="&#xe01a;" 
d="M512 960c-75.333 0 -144.83 -19.832 -208.497 -59.499s-114.167 -93.834 -151.5 -162.501s-56 -143 -56 -223v-547c0 -6.66699 2 -12.667 6 -18s9 -9.33301 15 -12c3.33301 -1.33301 7 -2 11 -2c10 0 18 3.33301 24 10l121 134l94 -131
c6.66699 -8.66699 15.334 -13 26.001 -13c5.33301 0 10.166 1.16699 14.499 3.5s8.16602 5.5 11.499 9.5l94 127l94 -127c6 -8.66699 14.333 -13 25 -13c3.33301 0 6.66602 0.5 9.99902 1.5s6.33301 2.5 9 4.5s5 4.33301 7 7l96 130l118 -132
c4 -5.33301 9.33301 -8.83301 16 -10.5s13 -1.16699 19 1.5s11 6.66699 15 12s6 11.333 6 18v547c0 114 -36 213.667 -108 299c-68.667 80.667 -153.334 128 -254.001 142c-18 2.66699 -36 4 -54 4zM864.003 52.001l-88.998 99.001c-6.66699 8 -15 11.667 -25 11
c-4.66699 0 -9.16699 -1.16699 -13.5 -3.5s-7.83301 -5.5 -10.5 -9.5l-94 -127l-93 127c-6 8.66699 -14.333 13 -25 13s-19.334 -4.33301 -26.001 -13l-95 -127l-92 127c-0.666992 1.33301 -1.83398 2.66602 -3.50098 3.99902l-4.5 3.5c-1.33301 1 -2.83301 2 -4.5 3
s-3.5 1.66699 -5.5 2s-4 0.5 -6 0.5h-2c-9.33301 0 -17 -3.33301 -23 -10l-92 -101v464c0 68.667 15.833 132.334 47.5 191.001s74.5 105 128.5 139s112.667 51 176 51s122 -17 176 -51s96.833 -80.333 128.5 -139s47.5 -122.334 47.5 -191.001v-463v0zM672.005 608.002
c-11.333 0 -22 -2.83301 -32 -8.5s-17.833 -13.5 -23.5 -23.5s-8.5 -20.667 -8.5 -32c0 -8.66699 1.66699 -17 5 -25s7.83301 -14.833 13.5 -20.5s12.5 -10.167 20.5 -13.5s16.333 -5 25 -5c17.333 0 32.333 6.33301 45 19s19 27.667 19 45c0 8.66699 -1.66699 17 -5 25
s-7.83301 14.833 -13.5 20.5s-12.5 10.167 -20.5 13.5s-16.333 5 -25 5zM352.005 608.002c-17.333 0 -32.333 -6.33301 -45 -19s-19 -27.667 -19 -45s6.33301 -32.333 19 -45s27.667 -19 45 -19s32.333 6.33301 45 19s19 27.667 19 45c0 4.66699 -0.5 9 -1.5 13
s-2.33301 8 -4 12s-3.66699 7.66699 -6 11s-4.83301 6.33301 -7.5 9s-5.66699 5.16699 -9 7.5s-7 4.33301 -11 6s-8 3 -12 4s-8.33301 1.5 -13 1.5z" />
    <glyph glyph-name="game-controller" unicode="&#xe01b;" 
d="M743 884l-71.999 35.0039c-28 14 -54.833 24.5 -80.5 31.5s-50.834 10.5 -75.501 10.5c-73.333 0 -143 -33 -209 -99l-207 -208c-55.333 -55.333 -87.5 -112.333 -96.5 -171s4.16699 -123.334 39.5 -194.001l34 -72l28.5 -60.5
c6.33301 -13.667 15.666 -32.167 27.999 -55.5s22.833 -41.333 31.5 -54s19.5 -27.334 32.5 -44.001s25.333 -29.167 37 -37.5s24.667 -15.5 39 -21.5s29.166 -9 44.499 -9h9c12.667 1.33301 24.5 4.16602 35.5 8.49902s20.667 9.5 29 15.5s16.5 14.5 24.5 25.5
s14.833 21 20.5 30s11.5 21.167 17.5 36.5s10.833 28.166 14.5 38.499s7.83398 24.5 12.501 42.5s8 32 10 42s5.33301 24.667 10 44c6 28 10.333 47 13 57c3.33301 14.667 9.33301 28 18 40s23.667 28.667 45 50l6 6l4 4l9 9c10.667 10.667 19.667 19.334 27 26.001
s14.5 12.667 21.5 18s13.667 9.33301 20 12s13.5 5 21.5 7c12 3.33301 31 7.66602 57 12.999l56 13.5c12.667 3 30.5 7.66699 53.5 14s40.833 12.166 53.5 17.499s27.334 12.5 44.001 21.5s29.5 18.5 38.5 28.5s17 21.667 24 35s11.167 28 12.5 44s-0.666992 31.667 -6 47
s-12 29 -20 41s-20.167 24.667 -36.5 38s-31 24.5 -44 33.5s-31.5 19.833 -55.5 32.5s-43 22.334 -57 29.001zM958.001 640.004c-0.666992 -12.667 -6.16699 -24.501 -16.5 -35.501s-22.5 -20.167 -36.5 -27.5s-32.5 -14.666 -55.5 -21.999s-43 -13 -60 -17l-65 -15
l-57.5 -13c-9.33301 -2.66699 -18.166 -5.83398 -26.499 -9.50098s-16 -7.5 -23 -11.5s-14.5 -9.33301 -22.5 -16s-15.333 -13.167 -22 -19.5l-24 -23.5l-3.5 -3.5l-3 -3c-1 -1 -2.16699 -1.83301 -3.5 -2.5c-0.666992 -0.666992 -2 -2.16699 -4 -4.5
s-3.66699 -3.83301 -5 -4.5c-16 -16.667 -28.5 -30.167 -37.5 -40.5s-17.333 -22.333 -25 -36s-13.167 -27.834 -16.5 -42.501c-3.33301 -12 -7.33301 -28.5 -12 -49.5l-12 -54.5c-3.33301 -15.333 -7.66602 -33 -12.999 -53s-11 -37.167 -17 -51.5s-12.667 -28 -20 -41
s-15.833 -23 -25.5 -30s-19.834 -11.167 -30.501 -12.5h-5c-13.333 0 -27 5.33301 -41 16s-26.833 23.334 -38.5 38.001s-24.334 34.334 -38.001 59.001s-25.167 46.667 -34.5 66l-34.5 72.5l-31.5 66.5c-20.667 41.333 -32 79.5 -34 114.5s3.5 66.167 16.5 93.5
s33.833 55.333 62.5 84c4.66699 4 24.334 23.667 59.001 59l88 88l29.5 29l30.5 30c53.333 54 107.666 81 162.999 81c38.667 0 81.334 -11.667 128.001 -35c15.333 -8 39.666 -19.667 72.999 -35c102.667 -48 169.667 -85.667 201 -113c30.667 -26 45 -51 43 -75z
M479.001 609.003h64v64h-64v-64zM479.001 705.003h64v64h-64v-64zM575.001 705.003h64v64h-64v-64zM575.001 609.003h64v64h-64v-64zM330.001 417.003l24 23.999c6 6 9 13.167 9 21.5s-3 15.5 -9 21.5s-13.167 9 -21.5 9s-15.5 -3 -21.5 -9l-25 -24l-24 24
c-6 6 -13.167 9 -21.5 9s-15.5 -3 -21.5 -9c-2.66699 -2 -4.66699 -4.5 -6 -7.5s-2.33301 -6 -3 -9s-0.666992 -6.16699 0 -9.5s1.66699 -6.5 3 -9.5s3.33301 -5.5 6 -7.5l24 -24l-24 -25c-6 -6 -9 -13.167 -9 -21.5s3 -15.5 9 -21.5s13.167 -9 21.5 -9s15.5 3 21.5 9l24 24
l25 -25c6 -6 13.333 -9 22 -9s16 3 22 9c1.33301 1.33301 2.66602 2.83301 3.99902 4.5s2.33301 3.5 3 5.5s1.16699 4 1.5 6s0.5 4 0.5 6s-0.166992 4 -0.5 6s-0.833008 3.83301 -1.5 5.5s-1.66699 3.33398 -3 5.00098s-2.66602 3.5 -3.99902 5.5z" />
    <glyph glyph-name="fire" unicode="&#xe01c;" 
d="M508 -63c-120 0 -218.67 37.3389 -296.003 112.006s-116 169.667 -116 285c0 23.333 2.66699 48.166 8 74.499s11.333 49.166 18 68.499s14.167 38.833 22.5 58.5s14.5 33.334 18.5 41.001s7.33301 13.5 10 17.5c6.66699 12.667 17 18 31 16
c6.66699 -0.666992 12.5 -3.16699 17.5 -7.5s8.16699 -9.5 9.5 -15.5c12.667 -48.667 28 -87.334 46 -116.001c17.333 -27.333 36 -47.666 56 -60.999c-19.333 82 -21.666 161.333 -6.99902 238c8.66699 46 23.167 88.167 43.5 126.5s40.833 68 61.5 89
s43.167 39.5 67.5 55.5s41.666 26 51.999 30s18.833 7 25.5 9c5.33301 1.33301 10.666 1.5 15.999 0.5s10.333 -3.5 15 -7.5c8.66699 -8 11.667 -18 9 -30c-0.666992 -5.33301 -1.66699 -12.166 -3 -20.499s-2.66602 -25.333 -3.99902 -51
s-1.16602 -50.834 0.500977 -75.501s6 -53.334 13 -86.001s16.833 -63 29.5 -91l11 -20.5c4 -7.66699 8.66699 -15.834 14 -24.501c2.66699 24.667 7 47 13 67c14.667 52.667 43 91 85 115c3.33301 2 6 3.33301 8 4c5.33301 2.66699 10.833 3.66699 16.5 3
s10.834 -2.83398 15.501 -6.50098s8.16699 -8.33398 10.5 -14.001s2.83301 -11.5 1.5 -17.5c0 -2 -0.166992 -4.66699 -0.5 -8s-0.166016 -10 0.500977 -20s2.16699 -20.333 4.5 -31s6.66602 -24 12.999 -40s14.5 -32 24.5 -48c22.667 -38 38.167 -72.5 46.5 -103.5
s12.5 -70.5 12.5 -118.5c0 -45.333 -6.66699 -88.5 -20 -129.5s-32.5 -77.667 -57.5 -110s-54.667 -60.333 -89 -84s-73.166 -41.834 -116.499 -54.501s-89 -19 -137 -19zM195.997 492.006c-24 -60 -36.002 -112.336 -36.002 -157.003c0 -97.333 32.667 -177.333 98 -240
s148.666 -94 249.999 -94c103.333 0 188.5 31.333 255.5 94s100.5 142.667 100.5 240c0 28 -1.5 51.833 -4.5 71.5s-8 38.334 -15 56.001s-17.167 37.834 -30.5 60.501c-23.333 38.667 -38.666 77.334 -45.999 116.001c-7.33301 -11.333 -13 -24 -17 -38
c-5.33301 -20 -9.33301 -42.833 -12 -68.5s-3.83398 -44.167 -3.50098 -55.5s0.833008 -19.333 1.5 -24c0 -7.33301 -1.83301 -14 -5.5 -20s-9.16699 -10.333 -16.5 -13c-3.33301 -0.666992 -6.66602 -1.16699 -9.99902 -1.5s-6.66602 0.166992 -9.99902 1.5
s-6.33301 3 -9 5s-5 4.33301 -7 7c-40 56.667 -68.333 102.667 -85 138c-39.333 85.333 -54.666 187 -45.999 305c-15.333 -9.33301 -30 -20 -44 -32s-29 -27.333 -45 -46s-30.167 -42 -42.5 -70s-21.5 -58.333 -27.5 -91c-4.66699 -25.333 -7 -52.166 -7 -80.499
s1.33301 -53 4 -74s6.33398 -41.333 11.001 -61s8.16699 -33.5 10.5 -41.5s4.16602 -13.333 5.49902 -16s2 -5.5 2 -8.5s-0.166992 -5.83301 -0.5 -8.5s-1.16602 -5.33398 -2.49902 -8.00098s-3 -5.33398 -5 -8.00098c-8.66699 -9.33301 -19 -12.666 -31 -9.99902
c-3.33301 0.666992 -7.5 1.83398 -12.5 3.50098s-13.833 5.5 -26.5 11.5s-24.834 13 -36.501 21s-24.667 19.167 -39 33.5s-27.166 30.166 -38.499 47.499c-4.66699 7.33301 -9.33398 15.833 -14.001 25.5s-9 19.5 -13 29.5z" />
    <glyph glyph-name="eyeglass" unicode="&#xe01d;" 
d="M1025 308c0 1.33301 -20.335 123.998 -61.002 367.998c0 3.33301 -0.666992 7.66602 -2 12.999v2c-1.33301 8.66699 -2.33301 15.5 -3 20.5s-2.16699 12.333 -4.5 22s-5.16602 17.667 -8.49902 24s-7.83301 13.833 -13.5 22.5s-12.5 15.667 -20.5 21
s-17.333 10.5 -28 15.5s-23.5 8.83301 -38.5 11.5s-31.167 4 -48.5 4c-9.33301 0 -17 -3.16699 -23 -9.5s-9 -13.833 -9 -22.5s3 -16.167 9 -22.5s13.667 -9.5 23 -9.5c17.333 0 32.166 -1.66699 44.499 -5s21.833 -7 28.5 -11s12.167 -10.333 16.5 -19s7 -16 8 -22l4.5 -28
c0.666992 -8 1.33398 -13.667 2.00098 -17c0 -1.33301 4.5 -26.333 13.5 -75s16.167 -90.667 21.5 -126c-7.33301 6 -15 11.333 -23 16s-16.5 8.83398 -25.5 12.501s-18.167 6.83398 -27.5 9.50098s-19 4.66699 -29 6s-20 2 -30 2c-40 0 -77.167 -10 -111.5 -30
s-61.833 -46.667 -82.5 -80c-12 4.66699 -26 8.66699 -42 12s-33.667 5 -53 5c-34.667 0 -66 -5.66699 -94 -17c-13.333 22 -29.666 41.167 -48.999 57.5s-41.333 29.166 -66 38.499s-50.667 14 -78 14c-52.667 0 -99.667 -16.667 -141 -50
c5.33301 35.333 12.5 77.833 21.5 127.5s13.833 75.5 14.5 77.5l2 17c1.33301 10.667 2.5 18.5 3.5 23.5s2.83301 11.5 5.5 19.5s6.16699 14 10.5 18s10 8.16699 17 12.5s16 7.33301 27 9s23.833 2.5 38.5 2.5c8.66699 0 16.167 3.16699 22.5 9.5s9.5 13.833 9.5 22.5
s-3.16699 16.167 -9.5 22.5s-13.833 9.5 -22.5 9.5c-20 0 -38.333 -1.83301 -55 -5.5s-30.334 -8.16699 -41.001 -13.5s-20.167 -12.5 -28.5 -21.5s-14.833 -17 -19.5 -24s-8.5 -16 -11.5 -27s-5 -19.5 -6 -25.5s-2.16699 -14 -3.5 -24l-1 -2l-1 -13l-58 -366
c-0.666992 -2.66699 -0.666992 -5.66699 0 -9v-14c0 -61.333 22.333 -113.833 67 -157.5s97.667 -65.5 159 -65.5c62 0 114.833 21.833 158.5 65.5s65.5 96.167 65.5 157.5c0 18 -2.33301 36 -7 54c5.33301 2 10.833 3.83301 16.5 5.5s13.334 3.33398 23.001 5.00098
s19.834 2.5 30.501 2.5c14 0 27 -1.16699 39 -3.5s22.333 -5.16602 31 -8.49902c-2.66699 -8.66699 -4.5 -17.667 -5.5 -27s-1.5 -18.666 -1.5 -27.999c0 -61.333 22.167 -113.833 66.5 -157.5s97.5 -65.5 159.5 -65.5s114.833 21.833 158.5 65.5s65.5 96.167 65.5 157.5
c0 1.33301 -0.166992 3.16602 -0.5 5.49902s-0.5 3.83301 -0.5 4.5c1.33301 4 1.66602 7.66699 0.999023 11zM224.998 127.998c-44 0 -81.998 15.8311 -113.998 47.498s-48 69 -48 112s16 80.333 48 112s70 47.5 114 47.5c29.333 0 56.166 -7.16699 80.499 -21.5
s43.666 -33.666 57.999 -57.999s21.5 -51.166 21.5 -80.499c0 -44 -15.667 -81.5 -47 -112.5s-69 -46.5 -113 -46.5zM801 127.996c-44 0 -82 15.832 -114 47.499s-48 69 -48 112s16 80.333 48 112s70 47.5 114 47.5c25.333 0 48.833 -5.5 70.5 -16.5s40 -26 55 -45
s25.167 -40.167 30.5 -63.5v-5c0 -1.33301 0.166992 -2.83301 0.5 -4.5s0.5 -3.16699 0.5 -4.5v-4l2 -8c0.666992 -5.33301 1 -8.33301 1 -9c0 -21.333 -4.33301 -41.833 -13 -61.5s-20 -36.667 -34 -51s-30.833 -25.666 -50.5 -33.999s-40.5 -12.5 -62.5 -12.5z" />
    <glyph glyph-name="envelope-open" unicode="&#xe01e;" 
d="M1023 487c0 2.66699 -0.333008 5.33301 -1 8s-1.5 5.33398 -2.5 8.00098s-2.16699 5.16699 -3.5 7.5s-3 4.5 -5 6.5l-1 1c-1.33301 2 -3 4 -5 6l-6 6l-417 403c-18 18 -40.667 27 -68 27s-50 -9 -68 -27l-417 -400c-4 -4 -8 -8.33301 -12 -13
s-7.83301 -10.834 -11.5 -18.501s-5.5 -15.167 -5.5 -22.5v-479c-0 -18 6.33301 -33.167 19 -45.5s27.667 -18.5 45 -18.5h896c11.333 0 22 2.83301 32 8.5s17.833 13.5 23.5 23.5s8.5 20.667 8.5 32v478v4c0 1.33301 -0.333008 3 -1 5zM270 233.999l-206 -190v371z
M336 206.999l6.00098 6l1 1l141 130c7.33301 6 15.666 9 24.999 9s17.333 -2.66699 24 -8l384 -345h-807zM757.001 228.999l203 180v-362zM104.001 516.999l386.998 371c6.66699 6 14.334 9 23.001 9s16.334 -3 23.001 -9l361 -345h-1l55 -55l-242 -215l-136 121
c-12 10 -25.667 16.667 -41 20s-31 3.33301 -47 0s-30.333 -10.333 -43 -21l-126 -116l-242 214l27 26h2z" />
    <glyph glyph-name="envolope-letter" unicode="&#xe01f;" 
d="M1023 487c0 2.66699 -0.333008 5.33203 -1 7.99902s-1.5 5.33398 -2.5 8.00098s-2.16699 5.16699 -3.5 7.5s-3 4.5 -5 6.5l-1 1c-1.33301 2 -3 4 -5 6l-6 6l-167 168v103c0 8.66699 -3.16699 16.167 -9.5 22.5s-13.833 9.5 -22.5 9.5h-101l-117 100
c-7.33301 7.33301 -15.5 13.166 -24.5 17.499s-18.5 7.16602 -28.5 8.49902s-20 1.33301 -30 0s-19.5 -4.16602 -28.5 -8.49902s-17.167 -10.166 -24.5 -17.499l-116 -100h-106c-8.66699 0 -16.167 -3.16699 -22.5 -9.5s-9.5 -13.833 -9.5 -22.5v-105l-163 -163
c-19.333 -12.667 -29 -30.667 -29 -54v-479c-0 -18 6.33301 -33.167 19 -45.5s27.667 -18.5 45 -18.5h896c11.333 0 22 2.83301 32 8.5s17.833 13.5 23.5 23.5s8.5 20.667 8.5 32v478v4c0 1.33301 -0.333008 3 -1 5zM269 233.998l-205 -190v371zM331 203.998
c4 2 7.66602 5 10.999 9c0.666992 0.666992 1.33398 1.5 2.00098 2.5s1.33398 2.16699 2.00098 3.5l138 128c7.33301 6 15.666 9 24.999 9s17.333 -2.66699 24 -8l384 -348h-807zM757.999 229.998l202 179v-361zM897.999 542.998h-1l55 -55l-120 -107v228zM490.999 887.998
c6.66699 6 14.333 9.00098 23 9.00098c4 0 8 -0.833008 12 -2.5s7.66699 -3.83398 11 -6.50098l64 -55h-174zM767.998 768.999l0.000976562 -445.001l-57 -51l-137 124c-4 3.33301 -8.33301 6.33301 -13 9s-9.33398 4.83398 -14.001 6.50098s-9.5 3.16699 -14.5 4.5
s-10.167 2.16602 -15.5 2.49902s-10.5 0.333008 -15.5 0s-10.167 -1.16602 -15.5 -2.49902s-10.333 -3 -15 -5s-9.5 -4.33301 -14.5 -7s-9.5 -5.66699 -13.5 -9l-127 -118l-60 53v438h512zM103.999 516.998l88 88v-217l-117 103l27 26h2z" />
    <glyph glyph-name="energy" unicode="&#xe020;" 
d="M595 895h1h-1zM595 895l-72 -379l262 -1l-356 -514l72 417l-262 1zM595 959l-1.99609 0.00195312h-3c-5.33301 -0.666992 -10 -1.83398 -14 -3.50098s-8.5 -4.16699 -13.5 -7.5s-9.5 -7.33301 -13.5 -12c-0.666992 -0.666992 -1.16699 -1.33398 -1.5 -2.00098
s-0.833008 -1.33398 -1.5 -2.00098l-359 -474c-15.333 -21.333 -17 -43.666 -5 -66.999c2 -4 4.5 -7.83301 7.5 -11.5s6.33301 -7 10 -10s7.66699 -5.5 12 -7.5s8.83301 -3.5 13.5 -4.5s9.33398 -1.5 14.001 -1.5l185 -1l-59 -343
c-2.66699 -14.667 -0.333984 -28.5 6.99902 -41.5s17.666 -22.5 30.999 -28.5c4 -2 8.16699 -3.33301 12.5 -4s8.83301 -1 13.5 -1c19.333 0 35.666 8.66699 48.999 26l359 514c15.333 21.333 17 43.666 5 66.999s-31 35 -57 35h-185l58 301
c0.666992 2.66699 1.16699 5.16699 1.5 7.5s0.5 4.83301 0.5 7.5c0 6 -0.833008 11.667 -2.5 17s-3.83398 10.333 -6.50098 15s-5.83398 9 -9.50098 13s-7.83398 7.33301 -12.501 10s-9.66699 4.83398 -15 6.50098s-10.666 2.5 -15.999 2.5h-1.5h-1.5v0z" />
    <glyph glyph-name="emotsmile" unicode="&#xe021;" 
d="M781 353c-8 3.33301 -16.1709 3.49707 -24.5039 0.49707s-14.166 -8.5 -17.499 -16.5l-4.5 -9c-1.66699 -3.33301 -5.83398 -10 -12.501 -20s-14 -19.667 -22 -29s-18.667 -19.5 -32 -30.5s-27.333 -20.5 -42 -28.5s-32.167 -14.833 -52.5 -20.5s-41.5 -8.5 -63.5 -8.5
c-0.666992 0 -1.33398 -0.166992 -2.00098 -0.5l-1 -0.5c-18.667 0 -36.667 2 -54 6s-32.666 9.5 -45.999 16.5s-25.833 14.5 -37.5 22.5s-22 16.833 -31 26.5s-16.833 18.5 -23.5 26.5s-12.334 16 -17.001 24l-10 17c-2 3.33301 -3.33301 6 -4 8c-4 8 -10 13.5 -18 16.5
s-16.167 2.66699 -24.5 -1s-14 -9.5 -17 -17.5s-2.5 -16.333 1.5 -25c0.666992 -2 1.83398 -4.66699 3.50098 -8s5.16699 -9.16602 10.5 -17.499l16.5 -25c5.66699 -8.33301 13.334 -17.833 23.001 -28.5s19.834 -20.667 30.501 -30s23.167 -18.666 37.5 -27.999
s29.333 -17.333 45 -24s33.334 -12.167 53.001 -16.5s39.834 -6.5 60.501 -6.5c0.666992 0 2 0.333008 4 1c38 0 74 6.5 108 19.5s61 27.333 81 43s38.167 33.834 54.5 54.501s27 35.5 32 44.5s8.83301 16.5 11.5 22.5c2 2.66699 3.16699 5.83398 3.5 9.50098s0 7 -1 10
s-2.16699 6 -3.5 9s-3.33301 5.66699 -6 8s-5.66699 4.16602 -9 5.49902zM511.996 959.997c-69.333 0 -135.666 -13.5 -198.999 -40.5s-117.833 -63.333 -163.5 -109s-82 -100.167 -109 -163.5s-40.5 -129.666 -40.5 -198.999s13.5 -135.666 40.5 -198.999
s63.333 -117.833 109 -163.5s100.167 -82 163.5 -109s129.666 -40.5 198.999 -40.5s135.666 13.5 198.999 40.5s117.833 63.333 163.5 109s82 100.167 109 163.5s40.5 129.666 40.5 198.999s-13.5 135.666 -40.5 198.999s-63.333 117.833 -109 163.5s-100.167 82 -163.5 109
s-129.666 40.5 -198.999 40.5zM511.996 -0.00292969c-48.667 0 -95.8311 7.49707 -141.498 22.4971s-86.834 36.333 -123.501 64s-68.834 59.834 -96.501 96.501s-49 77.834 -64 123.501s-22.5 92.834 -22.5 141.501c0 60.667 11.833 118.667 35.5 174s55.5 103 95.5 143
s87.667 71.833 143 95.5s113.333 35.5 174 35.5s118.667 -11.833 174 -35.5s103 -55.5 143 -95.5s71.833 -87.667 95.5 -143s35.5 -113.333 35.5 -174s-11.833 -118.667 -35.5 -174s-55.5 -103 -95.5 -143s-87.667 -71.833 -143 -95.5s-113.333 -35.5 -174 -35.5z
M351.999 479.994c17.333 0 32.168 6.33301 44.501 19s18.5 27.667 18.5 45c0 11.333 -2.83301 22 -8.5 32s-13.334 17.833 -23.001 23.5s-20.167 8.5 -31.5 8.5c-18 0 -33.167 -6.33301 -45.5 -19s-18.5 -27.667 -18.5 -45c0 -26 11.333 -45 34 -57c10 -4.66699 20 -7 30 -7
zM672.001 479.994c4.66699 0 9.33301 0.666992 14 2s9.16699 3 13.5 5s8.33301 4.5 12 7.5s7 6.33301 10 10s5.5 7.5 7.5 11.5s3.5 8.5 4.5 13.5s1.5 9.83301 1.5 14.5c0 17.333 -6.16699 32.333 -18.5 45s-27.333 19 -45 19s-32.667 -6.33301 -45 -19
s-18.5 -27.667 -18.5 -45s6.16699 -32.333 18.5 -45s27.5 -19 45.5 -19z" />
    <glyph glyph-name="disc" unicode="&#xe022;" 
d="M512 960c-92.667 0 -178.334 -22.833 -257.001 -68.5s-140.834 -107.834 -186.501 -186.501s-68.5 -164.334 -68.5 -257.001s22.833 -178.334 68.5 -257.001s107.834 -140.834 186.501 -186.501s164.334 -68.5 257.001 -68.5s178.334 22.833 257.001 68.5
s140.834 107.834 186.501 186.501s68.5 164.334 68.5 257.001s-22.833 178.334 -68.5 257.001s-107.834 140.834 -186.501 186.501s-164.334 68.5 -257.001 68.5zM960 448c0 -64.667 -13.666 -126.667 -40.999 -186l-283 152l2 8c0.666992 2.66699 1.16699 5.5 1.5 8.5l1 9
c0.333008 3 0.5 5.83301 0.5 8.5c0 12 -1.5 23.5 -4.5 34.5s-7.33301 21.167 -13 30.5s-12.5 18 -20.5 26s-16.667 14.833 -26 20.5s-19.5 10 -30.5 13s-22.5 4.5 -34.5 4.5c-14 0 -28 -2.33301 -42 -7l-169 273c66 35.333 136.333 53 211 53
c113.333 0 212.666 -37.667 297.999 -113c82 -73.333 130.667 -164 146 -272c2.66699 -21.333 4 -42.333 4 -63zM512.001 513c18 0 33.333 -6.33301 46 -19s19 -28 19 -46s-6.33301 -33.333 -19 -46s-28 -19 -46 -19s-33.333 6.33301 -46 19s-19 28 -19 46
s6.33301 33.333 19 46s28 19 46 19zM247.001 809l170 -274l-1 -1l-2 -2l-283 152c31.333 49.333 70 91 116 125zM64.001 448c0 62.667 12.6699 122.331 38.0029 178.998l284 -152c-2 -9.33301 -3 -18.333 -3 -27c0 -23.333 5.83301 -44.833 17.5 -64.5
s27.334 -35.334 47.001 -47.001s41.167 -17.5 64.5 -17.5c12 0 24 1.66699 36 5l170 -274c-64.667 -33.333 -133.334 -50 -206.001 -50c-48.667 0 -95.834 7.5 -141.501 22.5s-86.834 36.333 -123.501 64s-68.834 59.834 -96.501 96.501s-49 77.834 -64 123.501
s-22.5 92.834 -22.5 141.501zM772.004 83.9971l-169 273h1v1l285 -152c-31.333 -48 -70.333 -88.667 -117 -122z" />
    <glyph glyph-name="cursor-move" unicode="&#xe023;" 
d="M1016 463l-8.00098 8v1h-1l-129 118c-4.66699 4.66699 -10.334 7 -17.001 7s-12.334 -2.33301 -17.001 -7l-6 -8c-4 -4.66699 -5.66699 -10 -5 -16s3.33398 -11.333 8.00098 -16l77 -70h-372v374l70 -77c4.66699 -4.66699 10 -7.33398 16 -8.00098s11.333 1 16 5l8 6
c4.66699 4.66699 7 10.334 7 17.001s-2.33301 12.334 -7 17.001l-113 124c-2.66699 5.33301 -6.66699 9.66602 -12 12.999l-2 1c-4 4.66699 -9.16699 7 -15.5 7s-11.833 -2.33301 -16.5 -7l-8 -8l-1 -1l-115 -127c-4.66699 -4.66699 -7 -10.334 -7 -17.001
s2.33301 -12.334 7 -17.001l8 -6c1.33301 -1.33301 2.66602 -2.33301 3.99902 -3s2.83301 -1.16699 4.5 -1.5s3.33398 -0.5 5.00098 -0.5s3.33398 0.166992 5.00098 0.5s3.33398 0.833008 5.00098 1.5s3.16699 1.5 4.5 2.5s2.66602 2.16699 3.99902 3.5l69 77v-375h-376
l77 69c4.66699 4.66699 7.33398 10 8.00098 16s-1 11.333 -5 16l-6 8c-2.66699 3.33301 -6.16699 5.5 -10.5 6.5s-8.5 1 -12.5 0s-7.66699 -3.16699 -11 -6.5l-124 -113c-5.33301 -2.66699 -9.66602 -6.66699 -12.999 -12l-1 -2c-4.66699 -4 -7 -9.16699 -7 -15.5
s2.33301 -11.833 7 -16.5l8 -8l1 -1l127 -115c3.33301 -2.66699 7 -4.66699 11 -6s8.16699 -1.33301 12.5 0s7.83301 3.33301 10.5 6l6 8c2.66699 2.66699 4.33398 6 5.00098 10s0.166992 8 -1.5 12s-3.83398 7.33301 -6.50098 10l-78 69h379v-376l-69 77
c-4.66699 4.66699 -10 7.33398 -16 8.00098s-11.333 -1 -16 -5l-8 -6c-2.66699 -2.66699 -4.66699 -6.16699 -6 -10.5s-1.33301 -8.5 0 -12.5s3.33301 -7.66699 6 -11l115 -127l1 -1l8 -8c4.66699 -4.66699 10.167 -7 16.5 -7s11.5 2.33301 15.5 7l8 8
c0.666992 0 1 0.166992 1 0.5v0.5l118 129c4.66699 4.66699 7 10.334 7 17.001s-2.33301 12.334 -7 17.001l-8 6c-4.66699 4 -10 5.66699 -16 5s-11.333 -3.33398 -16 -8.00098l-69 -77v374h373l-77 -69c-4.66699 -4.66699 -7.33398 -10 -8.00098 -16s1 -11.333 5 -16l6 -8
c2.66699 -2.66699 6.16699 -4.66699 10.5 -6s8.5 -1.33301 12.5 0s7.66699 3.33301 11 6l127 115c0 0.666992 0.333008 1 1 1l8 8c4.66699 4.66699 7 10.167 7 16.5s-2.33301 11.5 -7 15.5z" />
    <glyph glyph-name="crop" unicode="&#xe024;" 
d="M992 160l-127.999 -0.000976562v594l119 119c4.66699 4 7.66699 8.83301 9 14.5s1.33301 11.167 0 16.5s-4.33301 10 -9 14c-6 6.66699 -13.333 10 -22 10s-16.334 -3.33301 -23.001 -10l-118 -118h-596v128c0 8.66699 -3.16699 16.167 -9.5 22.5s-13.833 9.5 -22.5 9.5
s-16.167 -3.16699 -22.5 -9.5s-9.5 -13.833 -9.5 -22.5v-128h-128c-8.66699 0 -16.167 -3.16699 -22.5 -9.5s-9.5 -13.833 -9.5 -22.5s3.16699 -16.167 9.5 -22.5s13.833 -9.5 22.5 -9.5h128v-608c0 -1.33301 0.333008 -3.66602 1 -6.99902l1 -1v-2v-2
c2 -4 4.5 -7.5 7.5 -10.5s6.5 -5.5 10.5 -7.5h3h1c4 -1.33301 6.66699 -2 8 -2h608v-128c0 -8.66699 3.16699 -16.167 9.5 -22.5s13.833 -9.5 22.5 -9.5s16.167 3.16699 22.5 9.5s9.5 13.833 9.5 22.5v128h128c8.66699 0 16.167 3.16699 22.5 9.5s9.5 13.833 9.5 22.5
s-3.16699 16.167 -9.5 22.5s-13.833 9.5 -22.5 9.5zM755.001 735.999l-531 -531v531h531zM269.001 159.999l531 530v-530h-531z" />
    <glyph glyph-name="credit-card" unicode="&#xe025;" 
d="M928 784h-832c-17.333 0 -33.333 -4.33301 -48 -13s-26.334 -20.334 -35.001 -35.001s-13 -30.667 -13 -48v-480c0 -26.667 9.33301 -49.334 28 -68.001s41.334 -28 68.001 -28h832c26.667 0 49.334 9.33301 68.001 28s28 41.334 28 68.001v480
c0 17.333 -4.33301 33.333 -13 48s-20.334 26.334 -35.001 35.001s-30.667 13 -48 13zM96 720h832c8.66699 0 16.167 -3.16699 22.5 -9.5s9.5 -13.833 9.5 -22.5v-64h-896v64c0 8.66699 3.16699 16.167 9.5 22.5s13.833 9.5 22.5 9.5zM928 176h-832
c-8.66699 0 -16.167 3.16699 -22.5 9.5s-9.5 13.833 -9.5 22.5v288h896v-288c0 -8.66699 -3.16699 -16.167 -9.5 -22.5s-13.833 -9.5 -22.5 -9.5z" />
    <glyph glyph-name="chemistry" unicode="&#xe026;" 
d="M810 -11l-170.001 202v353h21c9.33301 0 17 3.16699 23 9.5s9 14 9 23s-3 16.5 -9 22.5s-13.667 9 -23 9h-53c-8.66699 0 -16.167 -3 -22.5 -9s-9.5 -13.667 -9.5 -23v-397c0 -8.66699 2.66699 -16 8 -22l131 -157h-406l131 157c5.33301 6 8 13.333 8 22v397
c0 9.33301 -3.16699 17 -9.5 23s-13.833 9 -22.5 9h-53c-9.33301 0 -17 -3 -23 -9s-9 -13.5 -9 -22.5s3 -16.667 9 -23s13.667 -9.5 23 -9.5h21v-353l-170 -202c-9.33301 -10 -11.333 -21.333 -6 -34c2.66699 -6 6.66699 -10.667 12 -14s11 -5 17 -5h550
c13.333 0 22.833 6.33301 28.5 19s3.83398 24 -5.49902 34zM479.999 640c17.333 0 32.334 6.33105 45.001 18.998s19 27.834 19 45.501s-6.33301 32.667 -19 45s-27.667 18.5 -45 18.5c-8.66699 0 -17 -1.66699 -25 -5s-14.833 -7.83301 -20.5 -13.5
s-10.167 -12.5 -13.5 -20.5s-5 -16.333 -5 -25c0 -4 0.333008 -7.83301 1 -11.5s1.66699 -7.16699 3 -10.5s3 -6.66602 5 -9.99902s4.16699 -6.33301 6.5 -9s4.83301 -5.16699 7.5 -7.5s5.66699 -4.5 9 -6.5s6.66602 -3.66699 9.99902 -5s6.83301 -2.33301 10.5 -3
s7.5 -1 11.5 -1zM688.5 734.998c31 0 57.5 11 79.5 33s33 48.5 33 79.5s-11 57.5 -33 79.5s-48.5 33 -79.5 33s-57.5 -11 -79.5 -33s-33 -48.5 -33 -79.5s11 -57.5 33 -79.5s48.5 -33 79.5 -33zM688 895.998c6.66699 0 13 -1.16699 19 -3.5s11.167 -5.66602 15.5 -9.99902
s7.66602 -9.5 9.99902 -15.5s3.5 -12.333 3.5 -19c0 -13.333 -4.66699 -24.666 -14 -33.999s-20.666 -14 -33.999 -14c-8.66699 0 -16.667 2.16699 -24 6.5s-13.166 10.166 -17.499 17.499s-6.5 15.333 -6.5 24c0 13.333 4.66699 24.666 14 33.999s20.666 14 33.999 14z" />
    <glyph glyph-name="bell" unicode="&#xe027;" 
d="M906 248l-19.9961 24.998c-5.33301 6.66699 -11.833 15.334 -19.5 26.001s-14 20.5 -19 29.5s-10 19 -15 30s-8.83301 22 -11.5 33s-4 21.5 -4 31.5v209c0 44.667 -8 87.167 -24 127.5s-37.5 75 -64.5 104s-59.5 52.167 -97.5 69.5s-78.333 26 -121 26
c-56 0 -107.5 -14.667 -154.5 -44s-83.833 -69 -110.5 -119s-40 -104.667 -40 -164v-209c0 -12 -1.66699 -24.167 -5 -36.5s-9.33301 -25.666 -18 -39.999s-15.334 -25 -20.001 -32s-13.334 -18.833 -26.001 -35.5s-20 -26 -22 -28l-18 -25.5
c-4 -5.66699 -8.66699 -13 -14 -22s-8.83301 -16.333 -10.5 -22s-2.5 -12.167 -2.5 -19.5s1.66699 -14.333 5 -21c11.333 -22 39 -33 83 -33h183c0 -47.333 16.667 -87.666 50 -120.999s73.666 -50 120.999 -50s87.666 16.667 120.999 50s50 73.666 50 120.999h187
c44 0 71 11 81 33c2.66699 4.66699 4.16699 9.5 4.5 14.5s0.333008 9.5 0 13.5s-1.83301 8.83301 -4.5 14.5l-7 14.5c-2 4 -5.5 9.33301 -10.5 16s-9.16699 12 -12.5 16s-8 10 -14 18zM511.004 3.99805c-14 0 -27.333 2.83301 -40 8.5s-23.667 13 -33 22
s-16.833 20 -22.5 33s-8.5 26.5 -8.5 40.5h208c0 -28.667 -10.167 -53.167 -30.5 -73.5s-44.833 -30.5 -73.5 -30.5zM869.004 175.998l-712.003 0.000976562h-4.5h-4.5h-3c4 6.66699 12 18 24 34c0.666992 1.33301 7.33398 10.333 20.001 27l25 33
c4 5.33301 11 16.166 21 32.499s16.833 29.5 20.5 39.5s7.5 22.667 11.5 38s6 29.666 6 42.999v209c0 72 22.833 133.167 68.5 183.5s101.834 75.5 168.501 75.5c19.333 0 38 -2.33301 56 -7s34.833 -11.167 50.5 -19.5s30.334 -18.5 44.001 -30.5s26 -25.5 37 -40.5
s20.333 -30.833 28 -47.5s13.5 -34.667 17.5 -54s6 -39.333 6 -60v-209c0 -20.667 3 -41.5 9 -62.5s15.167 -41.5 27.5 -61.5s23 -36.167 32 -48.5s20.833 -27.5 35.5 -45.5l4.5 -6c1 -1.33301 2.5 -3.16602 4.5 -5.49902l5 -6l4.5 -5.5c1.66699 -2 3.16699 -4 4.5 -6h-3.5
h-3.5z" />
    <glyph glyph-name="badge" unicode="&#xe028;" 
d="M1021 120l-186.998 346.001c20 45.333 30 92.666 30 141.999c0 64 -15.833 123 -47.5 177s-74.5 96.667 -128.5 128s-112.667 47 -176 47c-38.667 0 -75.834 -6 -111.501 -18s-67.834 -28.833 -96.501 -50.5s-54 -46.834 -76 -75.501s-38.833 -61 -50.5 -97
s-17.5 -73 -17.5 -111c0 -17.333 1.16699 -34.333 3.5 -51s5.83301 -32.667 10.5 -48s10.334 -30.666 17.001 -45.999l-188 -343c-6.66699 -12 -5.83398 -23.5 2.49902 -34.5s19.166 -14.833 32.499 -11.5l161 36l55 -153c4.66699 -12.667 14 -19.667 28 -21h0.5h1.5
c12.667 0 22 5.66699 28 17l164 305c12 -1.33301 24 -2 36 -2c3.33301 0 6.83301 0.166992 10.5 0.5s7.33398 0.5 11.001 0.5s7.5 0.333008 11.5 1l167 -305c6 -11.333 15.333 -17 28 -17h1.5h1.5c13.333 1.33301 22.333 8.33301 27 21l55 153l161 -36
c6 -2 12 -1.83301 18 0.5s10.667 5.83301 14 10.5c8.66699 11.333 9.66699 23 3 35zM290.002 47.001l-40 112c-2 4.66699 -5 8.83398 -9 12.501s-8.5 6.16699 -13.5 7.5s-10.167 1.33301 -15.5 0l-119 -27l136 247c46.667 -62.667 107 -105.334 181 -128.001z
M224.002 608.001c0 79.333 28.168 147.167 84.501 203.5s124.166 84.5 203.499 84.5c52 0 100 -12.833 144 -38.5s78.833 -60.667 104.5 -105s38.5 -92.5 38.5 -144.5c0 -26 -3.33301 -51.5 -10 -76.5s-16.167 -48 -28.5 -69s-27.5 -40.333 -45.5 -58
s-37.5 -32.667 -58.5 -45s-43.833 -22 -68.5 -29s-50 -10.5 -76 -10.5c-52 0 -100.167 13 -144.5 39s-79.333 61 -105 105s-38.5 92 -38.5 144zM812.003 179.002c-8 2 -15.501 1.00195 -22.501 -2.99805s-12.167 -9.66699 -15.5 -17l-40 -113l-123 224
c37.333 11.333 71.833 28.166 103.5 50.499s58.834 49.166 81.501 80.499l135 -249z" />
    <glyph glyph-name="anchor" unicode="&#xe029;" 
d="M1021 229l-82.001 151.005v0l-6 11c-3.33301 5.33301 -8.33301 8.66602 -15 9.99902c-2.66699 0.666992 -5.5 0.833984 -8.5 0.500977s-5.83301 -1.5 -8.5 -3.5l-10 -6v-1l-146 -98c-3.33301 -2 -6 -5 -8 -9s-3 -8 -3 -12s1 -8 3 -12l7 -7
c2.66699 -5.33301 7.33398 -8.33301 14.001 -9s12.667 0.666016 18 3.99902l87 60c-10 -82.667 -45 -152.834 -105 -210.501s-131.333 -90.5 -214 -98.5v642h128c8.66699 0 16.167 3.16699 22.5 9.5s9.5 13.833 9.5 22.5s-3.16699 16.167 -9.5 22.5s-13.833 9.5 -22.5 9.5
h-129l-1 1v1c28.667 7.33301 52.334 22.666 71.001 45.999s28 50 28 80c0 35.333 -12.5 65.666 -37.5 90.999s-55.333 38 -91 38s-66.167 -12.667 -91.5 -38s-38 -55.666 -38 -90.999c0 -30 9.33301 -56.667 28 -80s42.334 -38.333 71.001 -45v-2l-1 -1h-129
c-8.66699 0 -16.167 -3.16699 -22.5 -9.5s-9.5 -13.833 -9.5 -22.5s3.16699 -16.167 9.5 -22.5s13.833 -9.5 22.5 -9.5h128v-642c-82.667 8 -153.834 40.667 -213.501 98s-94.834 127.666 -105.501 210.999l87 -60c5.33301 -3.33301 11.333 -4.66602 18 -3.99902
s11.334 3.66699 14.001 9l7 7c1.33301 2.66699 2.16602 5.66699 2.49902 9s0.166016 6.5 -0.500977 9.5s-1.83398 5.83301 -3.50098 8.5s-3.83398 4.66699 -6.50098 6l-146 99v0l-10 6c-5.33301 4 -11 5 -17 3c-3.33301 -0.666992 -6.16602 -1.83398 -8.49902 -3.50098
s-4.5 -3.83398 -6.5 -6.50098l-6 -11v0l-82 -151c-3.33301 -6 -4.16602 -12.167 -2.49902 -18.5s5.16699 -11.166 10.5 -14.499l9 -4c5.33301 -3.33301 11 -3.83301 17 -1.5s10.667 6.5 14 12.5l48 89c14.667 -102.667 61.167 -188 139.5 -256s169.5 -102 273.5 -102
s195.167 34 273.5 102s124.833 153.333 139.5 256l48 -89c3.33301 -6 8 -10.167 14 -12.5s11.667 -1.83301 17 1.5l9 4c5.33301 3.33301 8.83301 8.16602 10.5 14.499s0.833984 12.5 -2.49902 18.5zM447.999 833.005c0 18 6.33008 33.3311 18.9971 45.998
s27.834 19 45.501 19s33 -6.33301 46 -19s19.5 -28 19.5 -46c0 -7.33301 -1.16699 -14.166 -3.5 -20.499s-5.5 -12.166 -9.5 -17.499s-8.66699 -10 -14 -14s-11.333 -7.16699 -18 -9.5s-13.667 -3.5 -21 -3.5c-3.33301 0 -6.66602 0.333008 -9.99902 1
s-6.66602 1.5 -9.99902 2.5s-6.5 2.33301 -9.5 4s-5.83301 3.5 -8.5 5.5s-5.16699 4.16699 -7.5 6.5s-4.5 4.83301 -6.5 7.5s-3.83301 5.5 -5.5 8.5s-3 6 -4 9s-1.66699 6.33301 -2 10s-0.5 7.16699 -0.5 10.5z" />
    <glyph glyph-name="wallet" unicode="&#xe02a;" 
d="M1024 670c0 7.33301 -0.833008 14.834 -2.5 22.501s-4.83398 16.667 -9.50098 27s-12.667 19.833 -24 28.5s-25.333 15.334 -42 20.001l-723 144c-17.333 0 -33.333 -4.33301 -48 -13s-26.334 -20.334 -35.001 -35.001s-13 -30.667 -13 -48v-128h-32
c-26 -0.666992 -48.333 -10.334 -67 -29.001s-28 -41 -28 -67v-512c0 -26.667 9.33301 -49.334 28 -68.001s41.334 -28 68.001 -28h832c26.667 0 49.334 9.33301 68.001 28s28 41.334 28 68.001v590zM191 816.001c0 8.66699 2.83203 16 8.49902 22s12.834 9.33301 21.501 10
l706 -143l-2.5 -4.5c-1.66699 -3 -5 -6 -10 -9s-11.167 -4.16699 -18.5 -3.5h-705v128zM959.999 80.001c0 -8.66699 -3.16699 -16.167 -9.5 -22.5s-13.833 -9.5 -22.5 -9.5h-832c-8.66699 0 -16.167 3.16699 -22.5 9.5s-9.5 13.833 -9.5 22.5v512
c0 8.66699 3.16699 16.167 9.5 22.5s13.833 9.5 22.5 9.5h800c17.333 0 32.333 2.83301 45 8.5s19 13.5 19 23.5v-576v0zM191.499 400.001c-17.667 0 -32.667 -6.33301 -45 -19s-18.5 -27.834 -18.5 -45.501s6.16699 -32.667 18.5 -45s27.333 -18.5 45 -18.5
s32.834 6.16699 45.501 18.5s19 27.333 19 45s-6.33301 32.834 -19 45.501s-27.834 19 -45.501 19z" />
    <glyph glyph-name="vector" unicode="&#xe02b;" 
d="M992 288l-31.998 -0.00292969v2c0 32 -3.33301 63.333 -10 94s-16.334 59.834 -29.001 87.501s-27.834 53.834 -45.501 78.501s-37.5 47.167 -59.5 67.5s-46 38.5 -72 54.5h161c5.33301 -10 13 -17.833 23 -23.5s20.667 -8.5 32 -8.5c18 0 33.167 6.16699 45.5 18.5
s18.5 27.5 18.5 45.5s-6.16699 33.167 -18.5 45.5s-27.5 18.5 -45.5 18.5c-24 0 -42.333 -10.667 -55 -32h-297v32c0 8.66699 -3.16699 16.167 -9.5 22.5s-13.833 9.5 -22.5 9.5h-128c-8.66699 0 -16.167 -3.16699 -22.5 -9.5s-9.5 -13.833 -9.5 -22.5v-32h-297
c-12.667 21.333 -31 32 -55 32c-18 0 -33.167 -6.16699 -45.5 -18.5s-18.5 -27.5 -18.5 -45.5s6.16699 -33.167 18.5 -45.5s27.5 -18.5 45.5 -18.5c24 0 42.333 10.667 55 32h161c-66 -40 -118.5 -93.833 -157.5 -161.5s-58.5 -141.167 -58.5 -220.5v-2h-32
c-8.66699 0 -16.167 -3.16699 -22.5 -9.5s-9.5 -13.833 -9.5 -22.5v-128c0 -8.66699 3.16699 -16.167 9.5 -22.5s13.833 -9.5 22.5 -9.5h128c8.66699 0 16.167 3.16699 22.5 9.5s9.5 13.833 9.5 22.5v128c0 8.66699 -3.16699 16.167 -9.5 22.5s-13.833 9.5 -22.5 9.5h-32v2
c0 88 27.167 166.5 81.5 235.5s123.166 114.167 206.499 135.5v-21c0 -8.66699 3.16699 -16.167 9.5 -22.5s13.833 -9.5 22.5 -9.5h128c8.66699 0 16.167 3.16699 22.5 9.5s9.5 13.833 9.5 22.5v21c40.667 -10.667 78.834 -27.667 114.501 -51s66.167 -51.166 91.5 -83.499
s45.333 -69 60 -110s22 -83.167 22 -126.5v-2h-32c-8.66699 0 -16.167 -3.16699 -22.5 -9.5s-9.5 -13.833 -9.5 -22.5v-128c0 -8.66699 3.16699 -16.167 9.5 -22.5s13.833 -9.5 22.5 -9.5h128c8.66699 0 16.167 3.16699 22.5 9.5s9.5 13.833 9.5 22.5v128
c0 6 -1.5 11.333 -4.5 16s-6.83301 8.5 -11.5 11.5s-10 4.5 -16 4.5zM128.002 159.997h-64v64h64v-64zM544.002 671.997h-64v64h64v-64zM960.002 159.997h-64v64h64v-64z" />
    <glyph glyph-name="speech" unicode="&#xe02c;" 
d="M960 896l-896.002 0.00195312c-18 0 -33.167 -6.16699 -45.5 -18.5s-18.5 -27.5 -18.5 -45.5v-577c0 -18 6.16699 -33.167 18.5 -45.5s27.5 -18.5 45.5 -18.5h128v-159c0 -3.33301 0.333008 -6.5 1 -9.5s1.83398 -5.83301 3.50098 -8.5s3.83398 -5 6.50098 -7
s5.33398 -3.66699 8.00098 -5c2 -0.666992 4 -1.16699 6 -1.5s4.33301 -0.5 7 -0.5c8.66699 0 16 3 22 9l185 182h529c18 0 33.167 6.16699 45.5 18.5s18.5 27.5 18.5 45.5v577c0 7.33301 -1 14.166 -3 20.499s-5 12.166 -9 17.499s-8.66699 10 -14 14s-11.333 7 -18 9
s-13.334 3 -20.001 3zM959.998 255.002h-555l-149 -147v147h-192v577h896v-577zM223.998 511.002h576c8.66699 0 16.167 3.16699 22.5 9.5s9.5 13.833 9.5 22.5s-3.16699 16.167 -9.5 22.5s-13.833 9.5 -22.5 9.5h-576c-8.66699 0 -16.167 -3.16699 -22.5 -9.5
s-9.5 -13.833 -9.5 -22.5s3.16699 -16.167 9.5 -22.5s13.833 -9.5 22.5 -9.5zM223.998 639.002h576c8.66699 0 16.167 3.16699 22.5 9.5s9.5 13.833 9.5 22.5s-3.16699 16.167 -9.5 22.5s-13.833 9.5 -22.5 9.5h-576c-8.66699 0 -16.167 -3.16699 -22.5 -9.5
s-9.5 -13.833 -9.5 -22.5s3.16699 -16.167 9.5 -22.5s13.833 -9.5 22.5 -9.5zM223.998 383.002h384c8.66699 0 16.167 3.16699 22.5 9.5s9.5 13.833 9.5 22.5s-3.16699 16.167 -9.5 22.5s-13.833 9.5 -22.5 9.5h-384c-8.66699 0 -16.167 -3.16699 -22.5 -9.5
s-9.5 -13.833 -9.5 -22.5s3.16699 -16.167 9.5 -22.5s13.833 -9.5 22.5 -9.5z" />
    <glyph glyph-name="puzzle" unicode="&#xe02d;" 
d="M512 -64c-2.66699 0 -5.16992 0.168945 -7.50293 0.501953s-4.83301 0.666016 -7.5 0.999023s-5.16699 0.833008 -7.5 1.5s-4.5 1.5 -6.5 2.5s-4.16699 2 -6.5 3s-4.5 2.33301 -6.5 4s-4 3.16699 -6 4.5s-4 3 -6 5l-436 437c-14.667 14.667 -22 32.5 -22 53.5
s7.33301 38.833 22 53.5l160 160c4.66699 4.66699 10.5 7.66699 17.5 9s13.5 0.333008 19.5 -3s10.667 -8.16602 14 -14.499s4.33301 -12.833 3 -19.5c-1.33301 -4.66699 -2.16602 -8.83398 -2.49902 -12.501s-0.5 -7.16699 -0.5 -10.5c0 -23.333 5.66699 -44.833 17 -64.5
s26.833 -35.334 46.5 -47.001s40.834 -17.5 63.501 -17.5c34.667 0 63.667 12.5 87 37.5s35 55.5 35 91.5c0 17.333 -3.16699 33.666 -9.5 48.999s-14.833 28.833 -25.5 40.5s-23.5 20.834 -38.5 27.501s-31.167 10 -48.5 10c-6 0 -13.667 -1 -23 -3
c-15.333 -2.66699 -26.666 3 -33.999 17s-5.33301 26.333 6 37l149 150c7.33301 6.66699 15.666 11.834 24.999 15.501s19 5.5 29 5.5s19.667 -1.83301 29 -5.5s17.666 -8.83398 24.999 -15.501l109 -110c11.333 36 32.333 65.5 63 88.5s65.334 34.5 104.001 34.5
c24 0 46.833 -4.66699 68.5 -14s40.334 -21.833 56.001 -37.5s28.167 -34.5 37.5 -56.5s14 -44.667 14 -68c0 -15.333 -1.83301 -30.5 -5.5 -45.5s-9.16699 -28.833 -16.5 -41.5s-16 -24.167 -26 -34.5s-21.333 -19.5 -34 -27.5s-26 -14.333 -40 -19l106 -106
c14.667 -14.667 22 -32.5 22 -53.5s-7.33301 -38.833 -22 -53.5l-436 -437c-15.333 -14.667 -33.333 -22 -54 -22zM174.997 565.002l-108.003 -108.001c-6 -6 -6 -11.667 0 -17l436 -437c6 -5.33301 12 -5.33301 18 0l436 437c1.33301 1.33301 2.33301 3 3 5
s0.666992 4.16699 0 6.5s-1.66699 4.16602 -3 5.49902l-154 154c-10.667 10.667 -12.667 22.834 -6 36.501s17.334 19.5 32.001 17.5h5l1 -1h7c31.333 0 57.833 10.833 79.5 32.5s32.5 48 32.5 79s-10.833 57.5 -32.5 79.5s-48.167 33 -79.5 33c-14.667 0 -29 -3 -43 -9
s-26 -14 -36 -24s-18 -22 -24 -36s-9 -28.333 -9 -43c0 -2 0.333008 -4.66699 1 -8l1 -6c0.666992 -4 0.333984 -8.16699 -0.999023 -12.5s-3.5 -8.16602 -6.5 -11.499s-6.5 -6 -10.5 -8c-13.333 -6.66699 -25.333 -4.66699 -36 6l-157 157
c-1.33301 1.33301 -2.66602 2.33301 -3.99902 3s-2.5 1.16699 -3.5 1.5s-2 0.333008 -3 0s-2.16699 -0.833008 -3.5 -1.5s-2.66602 -1.66699 -3.99902 -3l-97 -97c42 -10 75.833 -32.167 101.5 -66.5s38.5 -73.833 38.5 -118.5c0 -17.333 -2.16699 -34.333 -6.5 -51
s-10.5 -32 -18.5 -46s-17.5 -27 -28.5 -39s-23.333 -22.167 -37 -30.5s-28.667 -14.833 -45 -19.5s-33.166 -7 -50.499 -7c-8.66699 0 -17.334 0.666992 -26.001 2s-17.167 3.16602 -25.5 5.49902s-16.333 5.33301 -24 9s-15 7.66699 -22 12s-13.833 9 -20.5 14
s-12.834 10.5 -18.501 16.5s-11 12.5 -16 19.5s-9.66699 14.167 -14 21.5s-8 14.833 -11 22.5s-5.5 15.834 -7.5 24.501z" />
    <glyph glyph-name="printer" unicode="&#xe02e;" 
d="M953 705l-121 -0.000976562v255h-640v-255h-121c-19.333 0 -36 -7 -50 -21s-21 -30.667 -21 -50v-434c0 -20 7 -37 21 -51s30.667 -21 50 -21h121v-192h640v192h121c12.667 0 24.5 3.33301 35.5 10s19.667 15.334 26 26.001s9.5 22.667 9.5 36v434c0 19.333 -7 36 -21 50
s-30.667 21 -50 21zM256 896.999h512v-192h-512v192zM768 -0.000976562h-512v353h512v-353zM960 199.999c0 -5.33301 -2.33301 -8 -7 -8h-121v225h-640v-224h-121c-4.66699 0 -7 2.33301 -7 7v434c0 4.66699 2.33301 7 7 7h882c4.66699 0 7 -2.33301 7 -7v-434zM832 576.999
h-32c-8.66699 0 -16.167 -3.16699 -22.5 -9.5s-9.5 -14 -9.5 -23s3.16699 -16.5 9.5 -22.5s13.833 -9 22.5 -9h32c8.66699 0 16.167 3 22.5 9s9.5 13.5 9.5 22.5s-3.16699 16.667 -9.5 23s-13.833 9.5 -22.5 9.5z" />
    <glyph glyph-name="present" unicode="&#xe02f;" 
d="M1024 640c0 4 -0.500977 8.16797 -1.50098 12.501s-2.16699 8.33301 -3.5 12s-3.16602 7.16699 -5.49902 10.5s-5 6.5 -8 9.5s-6.16699 5.66699 -9.5 8s-7 4.33301 -11 6s-8 3 -12 4s-8.33301 1.5 -13 1.5h-109c30.667 30 46 66.333 46 109c0 20 -3.66699 38.333 -11 55
s-20.5 31 -39.5 43s-42.5 18 -70.5 18c-11.333 0 -22.833 -1.16699 -34.5 -3.5s-22.834 -5.83301 -33.501 -10.5s-21.167 -9.83398 -31.5 -15.501s-20.333 -12.167 -30 -19.5s-19 -14.833 -28 -22.5s-17.667 -16 -26 -25l-23.5 -26c-7.33301 -8.33301 -14.5 -17 -21.5 -26
l-18.5 -24.5c-5.33301 -7.33301 -10.333 -15 -15 -23c-14 21.333 -29.167 41.833 -45.5 61.5s-36.166 40.334 -59.499 62.001s-49 39.167 -77 52.5s-55.667 20 -83 20c-28 0 -51.5 -6 -70.5 -18s-32.167 -26.333 -39.5 -43s-11 -35 -11 -55
c0 -42.667 15.667 -79.334 47 -110.001h-111c-18 0 -33.167 -6.16699 -45.5 -18.5s-18.5 -27.5 -18.5 -45.5v-191h65v-417c0 -17.333 6.16699 -32.333 18.5 -45s27.5 -19 45.5 -19h767c18 0 33.167 6.33301 45.5 19s18.5 27.667 18.5 45v417h64v192zM775.999 865.001
c38 0 57 -17.333 57 -52c0 -22.667 -7.66699 -42.5 -23 -59.5s-34.5 -29.5 -57.5 -37.5s-47.5 -12 -73.5 -12h-108c12.667 18.667 26.167 36.5 40.5 53.5s30.5 34 48.5 51s37.167 30.667 57.5 41s39.833 15.5 58.5 15.5zM248.999 865.001c36 0 72.5 -16.333 109.5 -49
s69.833 -70 98.5 -112h-108c-40.667 0 -77 10 -109 30s-48 46.667 -48 80c0 32 17 48.667 51 50c2 0.666992 4 1 6 1zM959.999 512.001h-416v128h416v-128zM63.999 640.001h416v-128h-416v128zM128.999 448.001h351v-417h-351v417zM895.999 31.001h-352v417h352v-417z" />
    <glyph glyph-name="playlist" unicode="&#xe030;" 
d="M34 896h448.001c8.66699 0 16.167 3.16699 22.5 9.5s9.5 13.833 9.5 22.5s-3.16699 16.167 -9.5 22.5s-13.833 9.5 -22.5 9.5h-448c-8.66699 0 -16.167 -3.16699 -22.5 -9.5s-9.5 -13.833 -9.5 -22.5c0 -15.333 7.33301 -25.333 22 -30
c3.33301 -1.33301 6.66602 -2 9.99902 -2zM34.001 704h448.001c8.66699 0 16.167 3.16699 22.5 9.5s9.5 13.833 9.5 22.5s-3.16699 16.167 -9.5 22.5s-13.833 9.5 -22.5 9.5h-448c-8.66699 0 -16.167 -3.16699 -22.5 -9.5s-9.5 -13.833 -9.5 -22.5
c0 -15.333 7.33301 -25.333 22 -30c3.33301 -1.33301 6.66602 -2 9.99902 -2zM514.002 544c0 8.66699 -3.16699 16.167 -9.5 22.5s-13.833 9.5 -22.5 9.5h-448c-8.66699 0 -16.167 -3.16699 -22.5 -9.5s-9.5 -13.833 -9.5 -22.5s3.16699 -16.167 9.5 -22.5
s13.833 -9.5 22.5 -9.5h448c8.66699 0 16.167 3.16699 22.5 9.5s9.5 13.833 9.5 22.5zM1013 635l-312.998 312.998c-4.66699 5.33301 -10.5 8.5 -17.5 9.5s-13.5 -0.166992 -19.5 -3.5c-6 -2 -11 -5.66699 -15 -11s-6 -11.666 -6 -18.999v-708
c-36.667 26.667 -79.334 40 -128.001 40c-52.667 0 -97.834 -15.667 -135.501 -47s-56.5 -69 -56.5 -113s18.833 -81.667 56.5 -113s83 -47 136 -47s98.167 15.667 135.5 47s56 69 56 113v5.5v6.5v744l262 -262c4 -4 8.66699 -6.66699 14 -8s10.833 -1.33301 16.5 0
s10.5 4 14.5 8c6 6.66699 9 14.334 9 23.001s-3 16 -9 22zM642.004 92.998c-1.33301 -23.333 -14.168 -44.667 -38.501 -64s-54.166 -29 -89.499 -29c-36.667 0 -67.334 10 -92.001 30s-37 42 -37 66s12.333 46 37 66s55.334 30 92.001 30
c23.333 0 44.833 -4.66699 64.5 -14s35 -21 46 -35s16.833 -28.667 17.5 -44v-6z" />
    <glyph glyph-name="pin" unicode="&#xe031;" 
d="M1015 580l-368.006 370.002c-8.66699 8.66699 -19 11.667 -31 9c-3.33301 -0.666992 -6.5 -2.16699 -9.5 -4.5s-5.66699 -4.83301 -8 -7.5s-4.16602 -6 -5.49902 -10c-22 -70.667 -24.333 -135.334 -7 -194.001c-1.33301 -0.666992 -2.33301 -1.33398 -3 -2.00098l-2 -2
l-171 -171c-56.667 26 -114.667 39 -174 39c-37.333 0 -73.666 -5.33301 -108.999 -16c-11.333 -4 -18.666 -11.667 -21.999 -23c-1.33301 -5.33301 -1.16602 -10.666 0.500977 -15.999s4.5 -10 8.5 -14l219 -221l-307 -311l-26 -70l64 25l314 311l221 -223
c6.66699 -6.66699 14.334 -10 23.001 -10c2.66699 0 5.33398 0.333008 8.00098 1c3.33301 1.33301 6.5 3 9.5 5s5.66699 4.5 8 7.5s4.16602 6.16699 5.49902 9.5c29.333 94.667 22.333 189 -21 283l175 175l0.5 1c0.333008 0.666992 0.833008 1 1.5 1
c13.333 -4 26.833 -7 40.5 -9s27.5 -3 41.5 -3c18 0 36.333 1.5 55 4.5s37.334 7.16699 56.001 12.5c11.333 4 18.333 11.667 21 23c1.33301 5.33301 1.33301 10.666 0 15.999s-4 10 -8 14zM602.994 136.002l-403.001 405.001c34.667 4 69.667 2.33301 105 -5
s69.333 -20 102 -38s62.334 -40.333 89.001 -67c64.667 -65.333 100.667 -142 108 -230c2 -22.667 1.66699 -44.334 -1 -65.001zM599.993 403.003c-4 6.66699 -8.33398 13.166 -13.001 19.499l-14 18.5c-4.66699 6 -9.66699 12 -15 18s-11 11.667 -17 17
c-10.667 11.333 -22.167 22 -34.5 32s-25.166 19.333 -38.499 28l144 144c14.667 -26 33.667 -50.667 57 -74c24 -23.333 49.333 -42.666 76 -57.999zM714.992 652.002c-61.333 60.667 -85.668 131.334 -73.001 212.001l287 -288
c-81.333 -10.667 -152.666 14.666 -213.999 75.999z" />
    <glyph glyph-name="picture" unicode="&#xe032;" 
d="M960 880h-896c-17.333 0 -32.333 -6.33301 -45 -19s-19 -27.667 -19 -45v-736c-0 -17.333 6.33301 -32.333 19 -45s27.667 -19 45 -19h896c17.333 0 32.333 6.33301 45 19s19 27.667 19 45v736c0 11.333 -2.83301 22 -8.5 32s-13.5 17.833 -23.5 23.5
s-20.667 8.5 -32 8.5zM960 80l-895.998 0.00195312v188l257 249l265 -264c5.33301 -6.66699 12.166 -9.83398 20.499 -9.50098s16.166 3.16602 23.499 8.49902l117 106l210 -217c0.666992 0 1.66699 -0.666992 3 -2v-59zM960.002 230.002l-187.999 192.999
c-6 5.33301 -12.833 8.33301 -20.5 9s-14.834 -1.66602 -21.501 -6.99902l-121 -105l-264 262c-6 7.33301 -13.667 11.333 -23 12s-17.333 -2.33301 -24 -9l-234 -227v458h896v-586zM736.003 560.001c11.333 0 22 2.83301 32 8.5s17.833 13.334 23.5 23.001
s8.5 20.5 8.5 32.5c0 17.333 -6.33301 32.333 -19 45s-27.667 19 -45 19s-32.333 -6.33301 -45 -19s-19 -27.834 -19 -45.501s6.33301 -32.667 19 -45s27.667 -18.5 45 -18.5z" />
    <glyph glyph-name="map" unicode="&#xe033;" 
d="M993 825l-320.999 133.003l-319 -126l-322 126c-2.66699 0.666992 -5.33398 1 -8.00098 1s-5.16699 -0.333008 -7.5 -1s-4.5 -1.66699 -6.5 -3s-3.66699 -3 -5 -5s-2.33301 -4.33301 -3 -7s-1 -5.33398 -1 -8.00098v-830c0 -9.33301 3 -17.833 9 -25.5
s13.333 -12.834 22 -15.501l322 -127l319 129l321 -126c2.66699 -0.666992 5.33398 -1 8.00098 -1c6.66699 0 12.167 2.33301 16.5 7s6.5 10.667 6.5 18v820c0 6 -1.33301 11.833 -4 17.5s-6.33398 10.667 -11.001 15s-10 7.16602 -16 8.49902zM384.001 779.003l256 100
v-761l-256 -102v763zM64.001 873.003l256 -94v-762l-256 104v752zM960.001 22.0029l-256 96v760l256 -110v-746z" />
    <glyph glyph-name="layers" unicode="&#xe034;" 
d="M22 658l474.999 -259.001c4.66699 -2 9.66699 -3 15 -3c2.66699 0 5.33398 0.333008 8.00098 1s5 1.33398 7 2.00098l481 259c11.333 6 16.666 15.667 15.999 29c0 6 -1.5 11.5 -4.5 16.5s-7.16699 8.83301 -12.5 11.5l-475 241c-10 4.66699 -19.667 4.66699 -29 0
l-480 -241c-5.33301 -2.66699 -9.66602 -6.5 -12.999 -11.5s-5 -10.5 -5 -16.5c0 -13.333 5.66699 -23 17 -29zM516.999 891.999l406 -207l-411 -221l-406 221zM1001 479.999l-95 48l-68 -37l80 -41l-411 -221l-406 221l85 43l-68 37l-101 -50
c-11.333 -6 -17.166 -15.5 -17.499 -28.5s5.16699 -22.5 16.5 -28.5l475 -259c5.33301 -2.66699 10.666 -4 15.999 -4c2.66699 0 5.16699 0.333008 7.5 1s4.83301 1.66699 7.5 3l480 259c11.333 6 17 15.5 17 28.5s-6 22.5 -18 28.5zM1001 255.999l-90.002 44.001l-68 -37
l75 -37l-411 -221l-406 221l79 36l-68 37l-95 -43c-11.333 -6 -17.166 -15.5 -17.499 -28.5s5.16699 -22.5 16.5 -28.5l475 -259c2 -0.666992 3.83301 -1.33398 5.5 -2.00098s3.33398 -1.16699 5.00098 -1.5s3.5 -0.5 5.5 -0.5c2.66699 0 5.16699 0.333008 7.5 1
s4.83301 1.66699 7.5 3l480 259c11.333 6 17 15.5 17 28.5s-6 22.5 -18 28.5z" />
    <glyph glyph-name="handbag" unicode="&#xe035;" 
d="M1023 17l-83.999 504.002c-3.33301 32.667 -18 60.667 -44 84s-55.333 35 -88 35h-71v85c0 32 -5.5 62.5 -16.5 91.5s-26.333 54.167 -46 75.5s-43.334 38.166 -71.001 50.499s-57.5 18.5 -89.5 18.5c-42.667 0 -81.167 -10.667 -115.5 -32s-61.166 -50 -80.499 -86
s-29 -75.333 -29 -118v-85h-77c-10.667 0 -21.334 -1.5 -32.001 -4.5s-20.667 -7 -30 -12s-18 -11.167 -26 -18.5s-15 -15.333 -21 -24s-11 -18 -15 -28s-6.66699 -20 -8 -30l-77 -505c-3.33301 -26.667 1.66699 -47.334 15 -62.001c12.667 -14 30.667 -21 54 -21h873
c15.333 0 28 2.33301 38 7s18 10.334 24 17.001c13.333 15.333 19 34.666 17 57.999zM352.001 725.002c0 48 15.166 88.667 45.499 122s68.833 50 115.5 50c23.333 0 45 -4.5 65 -13.5s36.833 -21.333 50.5 -37s24.334 -34 32.001 -55s11.5 -43.167 11.5 -66.5v-85h-320v85z
M947 0.00195312l-871.999 -0.998047c-8 0 -11.333 3.66699 -10 11l77 504c1.33301 8 4 15.833 8 23.5s9.16699 14.334 15.5 20.001s13.5 10.167 21.5 13.5s16 5 24 5h77v-73c-4.66699 -3.33301 -9 -6.83301 -13 -10.5s-7.33301 -7.83398 -10 -12.501
s-4.83398 -9.83398 -6.50098 -15.501s-2.5 -11.167 -2.5 -16.5c0 -18 6.16699 -33.167 18.5 -45.5s27.5 -18.5 45.5 -18.5s33.167 6.16699 45.5 18.5s18.5 27.5 18.5 45.5c0 24 -10.667 42.333 -32 55v73h320v-73c-21.333 -12.667 -32 -31 -32 -55
c0 -18 6.16699 -33.167 18.5 -45.5s27.5 -18.5 45.5 -18.5s33.167 6.16699 45.5 18.5s18.5 27.5 18.5 45.5c0 24 -10.667 42.333 -32 55v73h71c4 0 8 -0.5 12 -1.5s8 -2.33301 12 -4s7.83301 -3.66699 11.5 -6s7 -4.83301 10 -7.5s5.83301 -5.66699 8.5 -9s5 -7 7 -11
s3.66699 -8 5 -12s2.33301 -8.33301 3 -13l83 -503c0.666992 -2.66699 0 -4.83398 -2 -6.50098s-5.33301 -2.5 -10 -2.5z" />
    <glyph glyph-name="globe-alt" unicode="&#xe036;" 
d="M930 546c0 24 -1.83398 47.6689 -5.50098 71.002s-9 46.166 -16 68.499s-15.5 43.833 -25.5 64.5s-21.667 40.667 -35 60s-28 37.666 -44 54.999s-33.5 33.5 -52.5 48.5s-38.833 28.833 -59.5 41.5c-5.33301 3.33301 -10.833 5 -16.5 5s-11 -1.5 -16 -4.5
s-8.83301 -6.83301 -11.5 -11.5c-4.66699 -8 -5.83398 -16.167 -3.50098 -24.5s7.16602 -14.833 14.499 -19.5c64.667 -38 115.334 -88.333 152.001 -151s55 -130.334 55 -203.001c0 -60 -10.5 -116 -31.5 -168s-50 -96.333 -87 -133s-81.333 -65.5 -133 -86.5
s-107.5 -31.5 -167.5 -31.5c-8.66699 0 -17.5 0.333008 -26.5 1s-18 1.5 -27 2.5s-17.833 2.33301 -26.5 4s-17.167 3.66699 -25.5 6l-25.5 7.5c-8.66699 2.66699 -17 5.66699 -25 9s-16.167 3.33301 -24.5 0s-14.166 -9 -17.499 -17s-3.16602 -16.167 0.500977 -24.5
s9.5 -14.166 17.5 -17.499c57.333 -23.333 117.333 -35 180 -35h1v-63h-93c-9.33301 0 -17.333 -3 -24 -9s-10 -13.5 -10 -22.5s3.33301 -16.667 10 -23s14.667 -9.5 24 -9.5h253c9.33301 0 17.166 3.16699 23.499 9.5s9.5 14 9.5 23s-3.16699 16.5 -9.5 22.5
s-14.166 9 -23.499 9h-97v67c124 14.667 224.833 66 302.5 154s116.5 196.333 116.5 325zM798.999 543.002c0 38 -5.83203 75.0029 -17.499 111.003s-28.334 68.5 -50.001 97.5s-47 54.333 -76 76s-61.5 38.5 -97.5 50.5s-73 18 -111 18c-48 0 -93.667 -9.33301 -137 -28
s-80.833 -43.834 -112.5 -75.501s-56.667 -69.334 -75 -113.001s-27.5 -89.167 -27.5 -136.5c0 -64 15.667 -123 47 -177s74 -96.667 128 -128s113 -47 177 -47c48 0 93.667 9.33301 137 28s80.833 43.667 112.5 75s56.667 68.666 75 111.999s27.5 89 27.5 137zM158 543.005
c0 52 13 100.167 39 144.5s61.167 79.5 105.5 105.5s92.5 39 144.5 39c79.333 0 147.166 -28.333 203.499 -85s84.5 -124.667 84.5 -204c0 -39.333 -7.5 -76.666 -22.5 -111.999s-35.5 -65.833 -61.5 -91.5s-56.667 -46.167 -92 -61.5s-72.666 -23 -111.999 -23
c-79.333 0 -147.333 28.167 -204 84.5s-85 124.166 -85 203.499z" />
    <glyph glyph-name="globe" unicode="&#xe037;" 
d="M1025 448c0 44.667 -5.66602 88.3311 -16.999 130.998s-27.333 82.334 -48 119.001s-45.834 70.5 -75.501 101.5s-62.167 57.833 -97.5 80.5s-73.833 40.834 -115.5 54.501s-84.5 21.834 -128.5 24.501c-3.33301 0.666992 -6.33301 1 -9 1h-8h-2.5h-2.5h-3h-3.5h-2.5
c-69.333 0 -135.666 -13.5 -198.999 -40.5s-118 -63.333 -164 -109s-82.5 -100.167 -109.5 -163.5s-40.5 -129.666 -40.5 -198.999c0 -55.333 8.66699 -109.166 26 -161.499s41.833 -99.333 73.5 -141s68.5 -78.334 110.5 -110.001s89.167 -56.167 141.5 -73.5
s106.166 -26 161.499 -26h6h3h2h3h6c2 0 3.83301 0.166992 5.5 0.5s3.5 0.5 5.5 0.5c66 4 128.667 20.167 188 48.5s110.5 65.166 153.5 110.499s77.167 98.666 102.5 159.999s38 125.333 38 192zM930.001 282.997c-34.667 10 -81.333 18.6689 -140 26.002
c6.66699 45.333 10 91.666 10 138.999c0 37.333 -2.33301 74.333 -7 111c29.333 3.33301 56.333 7.33301 81 12s40.667 8.16699 48 10.5l17 5.5l-12 33c22.667 -54.667 34 -112 34 -172c0 -28.667 -2.66699 -56.834 -8 -84.501s-13 -54.5 -23 -80.5zM285.002 447.999
c0 12 0.333984 23.835 1.00098 35.502s1.5 23.167 2.5 34.5s2.16699 22.666 3.5 33.999c18 -1.33301 36.5 -2.5 55.5 -3.5s39.833 -1.83301 62.5 -2.5s45.667 -1 69 -1v-222c-64.667 -0.666992 -125.667 -3.33398 -183 -8.00098c-6.66699 44 -10.334 88.333 -11.001 133z
M543.003 892.001c26 -7.33301 50.5 -23.832 73.5 -49.499s43.333 -57.834 61 -96.501s31.5 -82 41.5 -130c-16.667 -1.33301 -34 -2.5 -52 -3.5s-37.5 -1.83301 -58.5 -2.5l-65.5 -2v284zM479.003 891.002l0.000976562 -283.002
c-62.667 0.666992 -121.334 3.33398 -176.001 8.00098c23.333 108.667 62.333 188.334 117 239.001c19.333 17.333 39 29.333 59 36zM479.004 259v-254c-52 16.667 -96.667 65 -134 145c-14 32 -25.667 66 -35 102c52.667 4 109 6.33301 169 7zM543.004 4l0.000976562 255
c31.333 -0.666992 61.166 -1.5 89.499 -2.5s54.833 -2.5 79.5 -4.5c-16.667 -66 -40 -121.167 -70 -165.5s-63 -71.833 -99 -82.5zM543.005 323v221.997c67.333 0.666992 129.333 3.33398 186 8.00098c4.66699 -34.667 7 -69.667 7 -105
c0 -45.333 -3.66699 -89.666 -11 -132.999c-55.333 4.66699 -116 7.33398 -182 8.00098zM915.005 645.997c-2 -0.666992 -4.5 -1.33008 -7.5 -1.99707s-7.16699 -1.66699 -12.5 -3s-11.666 -2.83301 -18.999 -4.5s-15.5 -3.33398 -24.5 -5.00098
s-19.333 -3.33398 -31 -5.00098s-23.834 -3.16699 -36.501 -4.5c-4 19.333 -8.33301 38 -13 56s-9.83398 35.333 -15.501 52s-12 32.667 -19 48s-14.333 29.666 -22 42.999s-15.5 26 -23.5 38c48.667 -21.333 92.334 -50.333 131.001 -87s69.667 -78.667 93 -126z
M359.005 869.001c-26.667 -30 -50.168 -66.167 -70.501 -108.5s-36.166 -88.833 -47.499 -139.5c-54.667 6 -99.334 13.333 -134.001 22c44.667 90.667 112 159 202 205c16.667 8 33.334 15 50.001 21zM84.0039 583.001c34.667 -9.33301 83 -17.667 145 -25
c-2.66699 -18 -4.5 -36.167 -5.5 -54.5s-1.5 -36.833 -1.5 -55.5c0 -46.667 4 -93 12 -139c-56.667 -6 -103.667 -13.333 -141 -22c-20 52 -30 105.667 -30 161c0 46 7 91 21 135zM121.004 228c35.333 7.33301 77.6689 13.665 127.002 18.998
c12 -44.667 27.5 -85.667 46.5 -123s40.5 -69.666 64.5 -96.999c-50.667 18 -96.334 44.333 -137.001 79s-74.334 75.334 -101.001 122.001zM691.007 36.999c18.667 26.667 35.499 57.667 50.499 93s27.167 74 36.5 116l55.5 -8c17.667 -2.66699 31.334 -5 41.001 -7
s18.5 -4 26.5 -6c-49.333 -86 -119.333 -148.667 -210 -188z" />
    <glyph glyph-name="frame" unicode="&#xe038;" 
d="M224 848h-192c-8.66699 0 -16.167 -3.16699 -22.5 -9.5s-9.5 -13.833 -9.5 -22.5v-192c0 -8.66699 3.16699 -16.167 9.5 -22.5s13.833 -9.5 22.5 -9.5s16.167 3.16699 22.5 9.5s9.5 13.833 9.5 22.5v160h160c8.66699 0 16.167 3.16699 22.5 9.5s9.5 13.833 9.5 22.5
s-3.16699 16.167 -9.5 22.5s-13.833 9.5 -22.5 9.5zM992 304c-8.66699 0 -16.167 -3.16699 -22.5 -9.5s-9.5 -13.833 -9.5 -22.5v-160h-160c-8.66699 0 -16.167 -3.16699 -22.5 -9.5s-9.5 -13.833 -9.5 -22.5s3.16699 -16.167 9.5 -22.5s13.833 -9.5 22.5 -9.5h192
c8.66699 0 16.167 3.16699 22.5 9.5s9.5 13.833 9.5 22.5v192c0 8.66699 -3.16699 16.167 -9.5 22.5s-13.833 9.5 -22.5 9.5zM224 112h-160v160c0 8.66699 -3.16699 16.167 -9.5 22.5s-13.833 9.5 -22.5 9.5s-16.167 -3.16699 -22.5 -9.5s-9.5 -13.833 -9.5 -22.5v-192
c0 -8.66699 3.16699 -16.167 9.5 -22.5s13.833 -9.5 22.5 -9.5h192c8.66699 0 16.167 3.16699 22.5 9.5s9.5 13.833 9.5 22.5s-3.16699 16.167 -9.5 22.5s-13.833 9.5 -22.5 9.5zM992 848h-192c-8.66699 0 -16.167 -3.16699 -22.5 -9.5s-9.5 -13.833 -9.5 -22.5
s3.16699 -16.167 9.5 -22.5s13.833 -9.5 22.5 -9.5h160v-160c0 -8.66699 3.16699 -16.167 9.5 -22.5s13.833 -9.5 22.5 -9.5s16.167 3.16699 22.5 9.5s9.5 13.833 9.5 22.5v192c0 8.66699 -3.16699 16.167 -9.5 22.5s-13.833 9.5 -22.5 9.5z" />
    <glyph glyph-name="folder-alt" unicode="&#xe039;" 
d="M960 752l-480.002 -0.000976562l-96 96h-320c-17.333 0 -32.333 -6.16699 -45 -18.5s-19 -27.5 -19 -45.5v-160v-64v-448c0 -18 6.33301 -33.167 19 -45.5s27.667 -18.5 45 -18.5h896c18 0 33.167 6.16699 45.5 18.5s18.5 27.5 18.5 45.5v576
c0 6.66699 -1 13.334 -3 20.001s-5 12.667 -9 18s-8.66699 10 -14 14s-11.166 7 -17.499 9s-13.166 3 -20.499 3zM63.998 783.999h291l79 -77l20 -19h506v-64h-896v160v0zM63.998 111.999v448h896v-448h-896z" />
    <glyph glyph-name="film" unicode="&#xe03a;" 
d="M800 688h64c8.66699 0 16.167 3 22.5 9s9.5 13.667 9.5 23v32c0 8.66699 -3.16699 16.167 -9.5 22.5s-13.833 9.5 -22.5 9.5h-64c-8.66699 0 -16.167 -3.16699 -22.5 -9.5s-9.5 -13.833 -9.5 -22.5v-32c0 -9.33301 3.16699 -17 9.5 -23s13.833 -9 22.5 -9zM800 496h64
c8.66699 0 16.167 3 22.5 9s9.5 13.667 9.5 23v32c0 8.66699 -3.16699 16.167 -9.5 22.5s-13.833 9.5 -22.5 9.5h-64c-8.66699 0 -16.167 -3.16699 -22.5 -9.5s-9.5 -13.833 -9.5 -22.5v-32c0 -9.33301 3.16699 -17 9.5 -23s13.833 -9 22.5 -9zM800 304h64
c8.66699 0 16.167 3 22.5 9s9.5 13.667 9.5 23v32c0 8.66699 -3.16699 16.167 -9.5 22.5s-13.833 9.5 -22.5 9.5h-64c-8.66699 0 -16.167 -3.16699 -22.5 -9.5s-9.5 -13.833 -9.5 -22.5v-32c0 -9.33301 3.16699 -17 9.5 -23s13.833 -9 22.5 -9zM800 112h64
c8.66699 0 16.167 3 22.5 9s9.5 13.667 9.5 23v32c0 8.66699 -3.16699 16.167 -9.5 22.5s-13.833 9.5 -22.5 9.5h-64c-8.66699 0 -16.167 -3.16699 -22.5 -9.5s-9.5 -13.833 -9.5 -22.5v-32c0 -9.33301 3.16699 -17 9.5 -23s13.833 -9 22.5 -9zM160 688h64
c8.66699 0 16.167 3 22.5 9s9.5 13.667 9.5 23v32c0 8.66699 -3.16699 16.167 -9.5 22.5s-13.833 9.5 -22.5 9.5h-64c-8.66699 0 -16.167 -3.16699 -22.5 -9.5s-9.5 -13.833 -9.5 -22.5v-32c0 -9.33301 3.16699 -17 9.5 -23s13.833 -9 22.5 -9zM160 496h64
c8.66699 0 16.167 3 22.5 9s9.5 13.667 9.5 23v32c0 8.66699 -3.16699 16.167 -9.5 22.5s-13.833 9.5 -22.5 9.5h-64c-8.66699 0 -16.167 -3.16699 -22.5 -9.5s-9.5 -13.833 -9.5 -22.5v-32c0 -9.33301 3.16699 -17 9.5 -23s13.833 -9 22.5 -9zM160 304h64
c8.66699 0 16.167 3 22.5 9s9.5 13.667 9.5 23v32c0 8.66699 -3.16699 16.167 -9.5 22.5s-13.833 9.5 -22.5 9.5h-64c-8.66699 0 -16.167 -3.16699 -22.5 -9.5s-9.5 -13.833 -9.5 -22.5v-32c0 -9.33301 3.16699 -17 9.5 -23s13.833 -9 22.5 -9zM160 112h64
c8.66699 0 16.167 3 22.5 9s9.5 13.667 9.5 23v32c0 8.66699 -3.16699 16.167 -9.5 22.5s-13.833 9.5 -22.5 9.5h-64c-8.66699 0 -16.167 -3.16699 -22.5 -9.5s-9.5 -13.833 -9.5 -22.5v-32c0 -9.33301 3.16699 -17 9.5 -23s13.833 -9 22.5 -9zM960 944h-896
c-17.333 0 -32.333 -6.33301 -45 -19s-19 -27.667 -19 -45v-864c-0 -17.333 6.33301 -32.333 19 -45s27.667 -19 45 -19h896c17.333 0 32.333 6.33301 45 19s19 27.667 19 45v864c0 11.333 -2.83301 22 -8.5 32s-13.5 17.833 -23.5 23.5s-20.667 8.5 -32 8.5zM960 16h-896
v864h896v-864z" />
    </font>
</defs>
</svg>
